<?xml version="1.0" encoding="utf-8"?>
<!-- Generator: Adobe Illustrator 24.0.1, SVG Export Plug-In . SVG Version: 6.00 Build 0)  -->
<svg version="1.1" id="Layer_1" xmlns="http://www.w3.org/2000/svg" xmlns:xlink="http://www.w3.org/1999/xlink" x="0px" y="0px"
	 viewBox="0 0 323 300.3" style="enable-background:new 0 0 323 300.3;" xml:space="preserve">
<style type="text/css">
	.st0{fill:url(#SVGID_1_);}
</style>
<linearGradient id="SVGID_1_" gradientUnits="userSpaceOnUse" x1="161.2939" y1="11.9329" x2="161.7078" y2="291.2263">
	<stop  offset="0" style="stop-color:#17A9FD"/>
	<stop  offset="1" style="stop-color:#0165E1"/>
</linearGradient>
<path class="st0" d="M301.1,151c0-77.6-62.5-140.5-139.6-140.5C84.4,10.5,21.9,73.4,21.9,151c0,70.1,51.1,128.2,117.8,138.8v-98.2
	h-35.4V151h35.5v-31c0-35.2,20.9-54.6,52.7-54.6c15.3,0,31.3,2.7,31.3,2.7v34.6h-17.6c-17.3,0-22.7,10.8-22.7,22V151h38.7l-6.2,40.6
	h-32.5v98.2C250.1,279.2,301.1,221.1,301.1,151z"/>
</svg>
