<?xml version="1.0" encoding="utf-8"?>
<!-- Generator: Adobe Illustrator 24.0.1, SVG Export Plug-In . SVG Version: 6.00 Build 0)  -->
<svg version="1.1" id="Layer_1" xmlns="http://www.w3.org/2000/svg" xmlns:xlink="http://www.w3.org/1999/xlink" x="0px" y="0px"
	 viewBox="0 0 238 228.3" style="enable-background:new 0 0 238 228.3;" xml:space="preserve">
<style type="text/css">
	.st0{fill:#020202;}
	.st1{fill:#FFFFFF;}
	.st2{fill:#F4EE16;}
</style>
<path class="st0" d="M-429.8,170.4c0,0.8-0.9,1.4-2,1.4c-1.3,0.1-2.1-0.5-2.1-1.4c0-0.8,0.9-1.4,2-1.4
	C-430.8,168.9-429.8,169.5-429.8,170.4z M-441.6,168.7c-0.3,0.8,0.5,1.6,1.6,1.9c1,0.4,2.1,0,2.4-0.8c0.2-0.8-0.5-1.6-1.6-2
	C-440.3,167.5-441.4,167.9-441.6,168.7L-441.6,168.7z M-424.8,168c-1.1,0.3-1.9,1-1.8,1.9c0.1,0.8,1.1,1.3,2.2,1
	c1.1-0.3,1.9-1,1.8-1.8C-422.7,168.4-423.7,167.9-424.8,168z M-399.7,22c-52.9,0-93.3,40.1-93.3,93c0,42.3,26.6,78.4,64.6,91.1
	c4.9,0.9,6.6-2.1,6.6-4.6c0-2.4-0.1-15.4-0.1-23.4c0,0-26.7,5.7-32.3-11.4c0,0-4.3-11.1-10.6-13.9c0,0-8.7-6,0.6-5.9
	c0,0,9.5,0.8,14.7,9.8c8.3,14.7,22.3,10.5,27.8,8c0.9-6.1,3.4-10.3,6.1-12.8c-21.3-2.4-42.8-5.4-42.8-42.1c0-10.5,2.9-15.7,9-22.4
	c-1-2.5-4.2-12.7,1-25.9c8-2.5,26.3,10.3,26.3,10.3c7.6-2.1,15.8-3.2,23.9-3.2s16.3,1.1,23.9,3.2c0,0,18.3-12.8,26.3-10.3
	c5.2,13.2,2,23.4,1,25.9c6.1,6.7,9.8,12,9.8,22.4c0,36.8-22.4,39.7-43.7,42.1c3.5,3,6.5,8.7,6.5,17.7c0,12.8-0.1,28.7-0.1,31.9
	c0,2.5,1.8,5.5,6.6,4.6c38.1-12.7,63.9-48.8,63.9-91.1C-304,62.1-346.9,22-399.7,22z M-456,153.4c-0.5,0.4-0.4,1.3,0.3,2
	c0.6,0.6,1.5,0.9,2,0.4c0.5-0.4,0.4-1.3-0.3-2C-454.6,153.2-455.5,152.9-456,153.4z M-460.1,150.3c-0.3,0.5,0.1,1.1,0.9,1.5
	c0.6,0.4,1.4,0.3,1.6-0.3c0.3-0.5-0.1-1.1-0.9-1.5C-459.2,149.8-459.8,150-460.1,150.3z M-447.7,163.9c-0.6,0.5-0.4,1.6,0.5,2.4
	c0.9,0.9,2,1,2.5,0.4c0.5-0.5,0.3-1.6-0.5-2.4C-446.1,163.4-447.2,163.3-447.7,163.9z M-452.1,158.3c-0.6,0.4-0.6,1.4,0,2.2
	s1.6,1.3,2.1,0.9c0.6-0.5,0.6-1.5,0-2.4C-450.5,158.2-451.5,157.8-452.1,158.3L-452.1,158.3z"/>
<path class="st1" d="M-170.3,166.4c0,0.8-0.9,1.4-2,1.4c-1.3,0.1-2.1-0.5-2.1-1.4c0-0.8,0.9-1.4,2-1.4
	C-171.3,164.9-170.3,165.5-170.3,166.4z M-182.1,164.7c-0.3,0.8,0.5,1.6,1.6,1.9c1,0.4,2.1,0,2.4-0.8c0.2-0.8-0.5-1.6-1.6-2
	C-180.8,163.5-181.9,163.9-182.1,164.7L-182.1,164.7z M-165.3,164c-1.1,0.3-1.9,1-1.8,1.9c0.1,0.8,1.1,1.3,2.2,1
	c1.1-0.3,1.9-1,1.8-1.8C-163.2,164.4-164.2,163.9-165.3,164z M-140.2,18c-52.9,0-93.3,40.1-93.3,93c0,42.3,26.6,78.4,64.6,91.1
	c4.9,0.9,6.6-2.1,6.6-4.6c0-2.4-0.1-15.4-0.1-23.4c0,0-26.7,5.7-32.3-11.4c0,0-4.3-11.1-10.6-13.9c0,0-8.7-6,0.6-5.9
	c0,0,9.5,0.8,14.7,9.8c8.3,14.7,22.3,10.5,27.8,8c0.9-6.1,3.4-10.3,6.1-12.8c-21.3-2.4-42.8-5.4-42.8-42.1c0-10.5,2.9-15.7,9-22.4
	c-1-2.5-4.2-12.7,1-25.9c8-2.5,26.3,10.3,26.3,10.3c7.6-2.1,15.8-3.2,23.9-3.2s16.3,1.1,23.9,3.2c0,0,18.3-12.8,26.3-10.3
	c5.2,13.2,2,23.4,1,25.9c6.1,6.7,9.8,12,9.8,22.4c0,36.8-22.4,39.7-43.7,42.1c3.5,3,6.5,8.7,6.5,17.7c0,12.8-0.1,28.7-0.1,31.9
	c0,2.5,1.8,5.5,6.6,4.6c38.1-12.7,63.9-48.8,63.9-91.1C-44.5,58.1-87.4,18-140.2,18z M-196.5,149.4c-0.5,0.4-0.4,1.3,0.3,2
	c0.6,0.6,1.5,0.9,2,0.4c0.5-0.4,0.4-1.3-0.3-2C-195.1,149.2-196,148.9-196.5,149.4z M-200.6,146.3c-0.3,0.5,0.1,1.1,0.9,1.5
	c0.6,0.4,1.4,0.3,1.6-0.3c0.3-0.5-0.1-1.1-0.9-1.5C-199.7,145.8-200.3,146-200.6,146.3z M-188.2,159.9c-0.6,0.5-0.4,1.6,0.5,2.4
	c0.9,0.9,2,1,2.5,0.4c0.5-0.5,0.3-1.6-0.5-2.4C-186.6,159.4-187.7,159.3-188.2,159.9z M-192.6,154.3c-0.6,0.4-0.6,1.4,0,2.2
	s1.6,1.3,2.1,0.9c0.6-0.5,0.6-1.5,0-2.4C-191,154.2-192,153.8-192.6,154.3L-192.6,154.3z"/>
<g>
	<path class="st2" d="M169.6,39.4H69.3c-12.1,0-22.1,9.9-22.1,22.1v104.7c0,12.1,9.9,22.1,22.1,22.1h100.3
		c12.1,0,22.1-9.9,22.1-22.1V61.5C191.7,49.3,181.8,39.4,169.6,39.4z M166.9,141.6c-2.3,1.4-4.9,2.2-7.5,2.9
		c-2.5,0.7-4.5,1.5-4.6,4.6c-0.1,1.8-1.4,2.6-4,2.5c-3,0-5.9,0.3-8.8,0.8c-3.9,0.7-7,2.9-10.2,4.9c-3.8,2.3-8,3.1-12.4,3
		c-5.1,0-9.8-1.5-14.2-4.4c-3.4-2.3-7.3-3.7-11.6-4.1c-2.4-0.2-4.8,0.1-7.2-0.5c-1.4-0.4-2-1.3-2.1-2.7c-0.1-1.6-0.6-2.9-2.5-3.5
		c-3.3-0.9-6.6-2.2-9.7-3.7c-0.9-0.4-1.1-1.1-1.2-1.8c-0.1-0.7,0.6-0.9,1.1-1.1c2.8-1.1,5.5-2.7,7.8-4.6c5.5-4.4,10.4-9.5,12.2-16.6
		c0.5-1.9-0.2-3.7-1.9-4.8c-2.6-1.7-5.2-3.4-7.8-5.1c-1.8-1.2-2.7-3.1-2.2-5.2c0.2-0.7,0.7-1.1,1.5-1.4c2.4-0.7,4.6,0.1,6.9,0.8
		c1.4,0.4,2.7,1.5,4.4,1.1c1-1.7,0.5-3.5,0.4-5.2c-0.1-3.5-0.3-6.9,0.2-10.3c0.2-10.3,8-19,16.6-21.2c2.8-0.7,5.7-1.3,8.6-1.1
		c3.7-0.1,7.2,0.3,10.7,1.6c4,1.5,7.5,3.7,10.4,6.8c3.2,3.4,4.7,7.5,5.3,12.1c0.6,5.1,0.2,10.2,0.2,15.3c0,2,0.1,2.9,2.7,1.8
		c2.4-0.9,4.7-2,7.4-1.9c1.4,0.1,2.5,0.6,3,1.9c0.5,1.2,0.2,2.3-0.7,3.4c-2.4,2.7-5.6,4.4-8.6,6.3c-3.3,2.2-2.9,3.4-2,6
		c1.4,4.2,3.8,7.8,6.7,11.1c3.5,4,7.9,6.8,12.5,9.2C168.5,139.6,168.6,140.6,166.9,141.6z"/>
	<path d="M169.8,133.8c-3.5-2.2-7.3-3.9-10.4-6.7c-2.6-2.4-5-5-6.4-8.3c-0.3-0.8-0.7-1.8,0.3-2.4c1.8-1.1,3.7-2.1,5.3-3.4
		c3.1-2.5,5.3-5.3,5-9.6c-0.3-4.6-5.7-9.1-10.9-8c-0.8,0.2-1.5,0.3-1.6-1c-0.2-3.2-0.4-6.5-0.8-9.7c-1.1-7.2-4.9-12.8-10.3-17.1
		c-5.8-4.6-12.6-6.8-20.2-6.7c-4.8,0-9.3,0.9-13.7,2.7c-7.7,3.3-13.2,8.9-15.9,16.9c-1.5,4.4-1.7,9-1.8,13.6c0,1.2-0.4,1.7-1.5,1.4
		c-2.1-0.7-4,0-5.9,0.7c-3.1,1.1-6,5.6-5.4,8.8c0.5,3,1.9,5.7,4.5,7.7c1.7,1.3,3.5,2.4,5.4,3.5c1.1,0.6,1.5,1.5,0.9,2.8
		c-1.2,2.5-2.8,4.8-4.8,6.7c-2.8,3-6.2,5.2-9.9,7c-1.9,0.9-3.9,2.1-4.7,4.1c-1,2.7-0.3,6,2.3,8.1c2.2,1.8,4.7,2.6,7.3,3.6
		c1.9,0.7,3.4,1.6,4.2,3.6c1.2,2.9,3.8,3.8,6.6,4.2c2.6,0.3,5.3,0.8,8,0.6c0,0,0,0.3,0.1,0.4c1-0.2,1.9,0.2,2.7,0.7
		c0.6-0.3,1.1,0.1,1.6,0.4c1.1,0.5,2.1,1.2,3.2,1.7c2.5,1.2,4.9,2.8,7.5,3.6c3.8,1.2,7.6,2,11.7,1.4c4.1-0.6,8-1.6,11.7-3.7
		c2.5-1.5,4.9-3.3,7.9-4.1c3.4-0.3,6.8-0.9,10.3-0.9c0.5,0,0.9,0,1.2-0.3c2.8-0.7,4.7-2.6,5.8-5.1c0.4-0.9,0.7-1.4,1.6-1.7
		c1.4-0.4,2.8-0.9,4.1-1.5c3-1.2,5.8-2.8,7.3-6C173.4,138.7,172.5,135.5,169.8,133.8z M165.3,140.9c-2.2,1.4-4.7,2.1-7.2,2.8
		c-2.4,0.7-4.4,1.4-4.5,4.4c-0.1,1.7-1.4,2.5-3.9,2.5c-2.9,0-5.7,0.3-8.5,0.8c-3.7,0.7-6.7,2.8-9.8,4.7c-3.7,2.3-7.8,3-11.9,2.9
		c-4.9,0-9.5-1.4-13.7-4.2c-3.3-2.2-7.1-3.6-11.2-4c-2.3-0.2-4.6,0.1-6.9-0.5c-1.4-0.4-1.9-1.2-2-2.6c-0.1-1.5-0.6-2.8-2.4-3.3
		c-3.2-0.9-6.4-2.1-9.4-3.6c-0.8-0.4-1-1-1.1-1.8c-0.1-0.7,0.6-0.9,1.1-1c2.7-1.1,5.3-2.6,7.5-4.4c5.3-4.3,10-9.1,11.8-16
		c0.5-1.9-0.2-3.5-1.8-4.6c-2.5-1.6-5-3.3-7.5-4.9c-1.8-1.2-2.6-3-2.1-5c0.2-0.7,0.7-1.1,1.4-1.3c2.4-0.7,4.5,0.1,6.6,0.8
		c1.4,0.4,2.6,1.4,4.2,1c1-1.6,0.4-3.4,0.4-5c-0.1-3.3-0.2-6.7,0.2-10c0.2-9.9,7.7-18.3,16-20.5c2.7-0.7,5.5-1.3,8.3-1.1
		c3.5-0.1,7,0.3,10.3,1.5c3.8,1.5,7.3,3.6,10.1,6.6c3.1,3.3,4.6,7.3,5.1,11.7c0.6,4.9,0.2,9.8,0.2,14.8c0,1.9,0.1,2.8,2.6,1.8
		c2.3-0.9,4.5-2,7.1-1.8c1.4,0.1,2.4,0.6,2.9,1.8c0.4,1.1,0.2,2.3-0.7,3.3c-2.3,2.6-5.4,4.2-8.3,6.1c-3.2,2.1-2.8,3.3-2,5.8
		c1.3,4.1,3.7,7.5,6.5,10.8c3.4,3.9,7.6,6.6,12.1,8.9C166.8,138.9,167,139.9,165.3,140.9z"/>
</g>
</svg>
