<?xml version="1.0" encoding="utf-8"?>
<!-- Generator: Adobe Illustrator 24.0.1, SVG Export Plug-In . SVG Version: 6.00 Build 0)  -->
<svg version="1.1" id="Layer_1" xmlns="http://www.w3.org/2000/svg" xmlns:xlink="http://www.w3.org/1999/xlink" x="0px" y="0px"
	 viewBox="0 0 274 273.3" style="enable-background:new 0 0 274 273.3;" xml:space="preserve">
<style type="text/css">
	.st0{fill:#0E60D8;}
</style>
<path class="st0" d="M230,23H38c-8.8,0-16,7.3-16,16.2v191.7c0,8.9,7.1,16.1,16,16.1H230c8.8,0,16-7.3,16-16.1V39.2
	C246,30.3,238.8,23,230,23z M89.7,215H56.5V108.1h33.3L89.7,215L89.7,215z M73.1,93.5c-10.7,0-19.3-8.7-19.3-19.3S62.5,55,73.1,55
	c10.6,0,19.3,8.7,19.3,19.3C92.3,84.9,83.8,93.5,73.1,93.5z M214.1,215h-33.2v-52c0-12.4-0.3-28.4-17.3-28.4
	c-17.3,0-19.9,13.5-19.9,27.5V215h-33.2V108.1h31.9v14.6h0.4c4.4-8.4,15.3-17.3,31.4-17.3c33.6,0,39.8,22.2,39.8,50.9V215z"/>
</svg>
