<?xml version="1.0" encoding="utf-8"?>
<!-- Generator: Adobe Illustrator 24.0.1, SVG Export Plug-In . SVG Version: 6.00 Build 0)  -->
<svg version="1.1" id="Layer_1" xmlns="http://www.w3.org/2000/svg" xmlns:xlink="http://www.w3.org/1999/xlink" x="0px" y="0px"
	 viewBox="0 0 263 267.3" style="enable-background:new 0 0 263 267.3;" xml:space="preserve">
<style type="text/css">
	.st0{fill:#BA0C08;}
</style>
<path class="st0" d="M241,129.5c0,61-49.5,110.5-110.5,110.5c-11.4,0-22.4-1.7-32.7-4.9c4.5-7.4,11.2-19.4,13.7-29
	c1.3-5.2,6.9-26.3,6.9-26.3c3.6,6.9,14.1,12.7,25.3,12.7c33.3,0,57.3-30.7,57.3-68.8c0-36.5-29.8-63.8-68.1-63.8
	c-47.7,0-73,32-73,66.9c0,16.2,8.6,36.4,22.4,42.8c2.1,1,3.2,0.5,3.7-1.5c0.4-1.5,2.2-9,3.1-12.5c0.3-1.1,0.1-2.1-0.8-3.2
	c-4.5-5.6-8.2-15.7-8.2-25.2c0-24.4,18.4-47.9,49.9-47.9c27.1,0,46.2,18.5,46.2,45c0,29.9-15.1,50.6-34.8,50.6c-10.8,0-19-9-16.4-20
	c3.1-13.1,9.1-27.3,9.1-36.8c0-8.5-4.5-15.6-14-15.6c-11.1,0-20,11.5-20,26.8c0,9.8,3.3,16.4,3.3,16.4s-10.9,46.2-12.9,54.9
	c-2.2,9.5-1.3,23-0.4,31.7C49.1,216.3,20,176.3,20,129.5C20,68.5,69.5,19,130.5,19S241,68.5,241,129.5z"/>
</svg>
