<?xml version="1.0" encoding="utf-8"?>
<!-- Generator: Adobe Illustrator 24.0.1, SVG Export Plug-In . SVG Version: 6.00 Build 0)  -->
<svg version="1.1" id="Layer_1" xmlns="http://www.w3.org/2000/svg" xmlns:xlink="http://www.w3.org/1999/xlink" x="0px" y="0px"
	 viewBox="0 0 632.2 634.3" style="enable-background:new 0 0 632.2 634.3;" xml:space="preserve">
<style type="text/css">
	.st0{clip-path:url(#SVGID_2_);}
	.st1{clip-path:url(#SVGID_4_);}
	.st2{clip-path:url(#SVGID_8_);fill:#FFFFFF;}
</style>
<g>
	<g>
		<defs>
			<rect id="SVGID_1_" x="-18.2" y="-20.5" width="873.1" height="617.3"/>
		</defs>
		<clipPath id="SVGID_2_">
			<use xlink:href="#SVGID_1_"  style="overflow:visible;"/>
		</clipPath>
		<g class="st0">
			<defs>
				<path id="SVGID_3_" d="M434,65.6H315H195.9h-17.4c-31.7,0-60.4,12.8-81.1,33.6c-9.8,9.8-17.9,21.5-23.7,34.4
					c-6.4,14.3-9.9,30.1-9.9,46.8v9.1v67.1v107.8v75.9v16.3c0,19.4,4.8,37.6,13.3,53.6c5.4,10.2,12.3,19.5,20.4,27.5
					c20.8,20.8,49.4,33.6,81.1,33.6h17.4H315H434h20.7c31.7,0,60.4-12.8,81.1-33.6c8.1-8.1,15-17.4,20.3-27.5
					c8.5-16,13.3-34.2,13.3-53.6v-16.3v-75.9V256.5v-67.1v-9.1c0-16.7-3.5-32.5-9.9-46.8c-5.8-12.9-13.8-24.5-23.7-34.4
					c-20.8-20.8-49.4-33.6-81.1-33.6H434z"/>
			</defs>
			<clipPath id="SVGID_4_">
				<use xlink:href="#SVGID_3_"  style="overflow:visible;"/>
			</clipPath>
			<g class="st1">
				<g>
					<defs>
						<rect id="SVGID_5_" x="63.7" y="65.6" width="505.6" height="505.6"/>
					</defs>
					<clipPath id="SVGID_6_">
						<use xlink:href="#SVGID_5_"  style="overflow:visible;"/>
					</clipPath>
					<g style="clip-path:url(#SVGID_6_);">
						
							<image style="overflow:visible;" width="1054" height="1054" xlink:href="E7C722DA.jpg"  transform="matrix(0.48 0 0 0.48 63.6989 65.5451)">
						</image>
					</g>
				</g>
			</g>
		</g>
		<g class="st0">
			<defs>
				<rect id="SVGID_7_" x="-18.2" y="-20.5" width="873.1" height="617.3"/>
			</defs>
			<clipPath id="SVGID_8_">
				<use xlink:href="#SVGID_7_"  style="overflow:visible;"/>
			</clipPath>
			<path class="st2" d="M395,133.4H238.1c-59.2,0-107.2,48-107.2,107.2v156.9c0,59.2,48,107.2,107.2,107.2H395
				c59.2,0,107.2-48,107.2-107.2V240.5C502.2,181.3,454.2,133.4,395,133.4 M468,400.2c0,39.3-31.8,71.1-71.1,71.1H236.2
				c-39.3,0-71.1-31.8-71.1-71.1V239.6c0-39.3,31.8-71.1,71.1-71.1h160.6c39.3,0,71.1,31.8,71.1,71.1V400.2z"/>
			<path class="st2" d="M316.5,223.6c-53.2,0-96.3,43.1-96.3,96.3c0,53.2,43.1,96.3,96.3,96.3c53.2,0,96.3-43.1,96.3-96.3
				C412.9,266.7,369.7,223.6,316.5,223.6 M316.5,382.4c-34.5,0-62.4-28-62.4-62.4c0-34.5,28-62.4,62.4-62.4
				c34.5,0,62.4,28,62.4,62.4C379,354.4,351,382.4,316.5,382.4"/>
			<path class="st2" d="M416.1,197.5c-12.4,0-22.4,10-22.4,22.4c0,12.4,10,22.4,22.4,22.4c12.4,0,22.4-10,22.4-22.4
				C438.5,207.5,428.5,197.5,416.1,197.5"/>
		</g>
	</g>
</g>
</svg>
