<?xml version="1.0" encoding="utf-8"?>
<!-- Generator: Adobe Illustrator 24.0.1, SVG Export Plug-In . SVG Version: 6.00 Build 0)  -->
<svg version="1.1" id="Layer_1" xmlns="http://www.w3.org/2000/svg" xmlns:xlink="http://www.w3.org/1999/xlink" x="0px" y="0px"
	 viewBox="0 0 235 234.3" style="enable-background:new 0 0 235 234.3;" xml:space="preserve">
<style type="text/css">
	.st0{fill:#229ED9;}
</style>
<path class="st0" d="M117.5,16C61.4,16,16,61.4,16,117.5S61.4,219,117.5,219S219,173.6,219,117.5S173.6,16,117.5,16z M164.5,85
	c-1.5,16-8.1,55-11.5,73c-1.4,7.6-4.2,10.2-6.9,10.4c-5.9,0.5-10.4-3.9-16.1-7.6c-8.9-5.9-14-9.5-22.7-15.2
	c-10-6.6-3.5-10.2,2.2-16.2c1.5-1.6,27.5-25.2,28-27.3c0.1-0.3,0.1-1.3-0.5-1.8s-1.5-0.3-2.1-0.2c-0.9,0.2-15.2,9.6-42.8,28.3
	c-4.1,2.8-7.7,4.1-11,4.1c-3.6-0.1-10.6-2-15.8-3.7c-6.4-2.1-11.4-3.2-11-6.7c0.2-1.8,2.7-3.7,7.6-5.6
	c29.6-12.9,49.3-21.4,59.2-25.5c28.2-11.7,34-13.8,37.9-13.8c0.8,0,2.7,0.2,3.9,1.2c0.8,0.7,1.3,1.7,1.4,2.7
	C164.6,82.4,164.6,83.7,164.5,85z"/>
</svg>
