<?xml version="1.0" encoding="utf-8"?>
<!-- Generator: Adobe Illustrator 24.0.1, SVG Export Plug-In . SVG Version: 6.00 Build 0)  -->
<svg version="1.1" id="Layer_1" xmlns="http://www.w3.org/2000/svg" xmlns:xlink="http://www.w3.org/1999/xlink" x="0px" y="0px"
	 viewBox="0 0 276.3 274" style="enable-background:new 0 0 276.3 274;" xml:space="preserve">
<style type="text/css">
	.st0{fill:#00A5E8;}
	.st1{fill:#009AE4;}
	.st2{fill:#00B7F0;}
	.st3{fill:#008FD0;}
	.st4{fill:#00B4ED;}
	.st5{fill:#00B2EC;}
	.st6{fill:#008CCE;}
	.st7{fill:#008ACC;}
	.st8{fill:#0088CA;}
	.st9{fill:#009EDC;}
	.st10{fill:#00A4E1;}
	.st11{fill:#00A1DE;}
	.st12{fill:#0092D2;}
	.st13{fill:#0086C9;}
	.st14{fill:#0095D5;}
	.st15{fill:#0098D7;}
	.st16{fill:#00A9E4;}
	.st17{fill:#00ACE7;}
	.st18{fill:#009BDA;}
	.st19{fill:#0092D3;}
	.st20{fill:#0099D8;}
	.st21{fill:#00AFEA;}
	.st22{fill:#00A7E3;}
	.st23{fill:#00A6E3;}
	.st24{fill:#00ADE8;}
	.st25{fill:#00ABE7;}
	.st26{fill:#00B0EA;}
	.st27{fill:#00AEE9;}
	.st28{fill:#0073CA;}
	.st29{fill:#00B5EF;}
	.st30{fill:#00ABE3;}
	.st31{fill:#00B1ED;}
	.st32{fill:#005DA3;}
	.st33{fill:#0085B5;}
	.st34{fill:#0081D9;}
	.st35{fill:#0067B5;}
	.st36{fill:#007AD5;}
	.st37{fill:#00AEEC;}
	.st38{fill:#00AAEA;}
	.st39{fill:#007DD6;}
	.st40{fill:#008CDD;}
	.st41{fill:#0087DB;}
	.st42{fill:#0097CB;}
	.st43{fill:#008FD6;}
	.st44{fill:#0093E0;}
	.st45{fill:#009AE3;}
	.st46{fill:#00A2E7;}
	.st47{fill:#009EE6;}
	.st48{fill:#008BD5;}
	.st49{fill:#006CAA;}
	.st50{fill:#00A0E6;}
	.st51{fill:#0079BD;}
	.st52{fill:#00A7E9;}
	.st53{fill:#009ECE;}
	.st54{fill:#008FB9;}
	.st55{fill:#01ADEB;}
	.st56{fill:#0076AE;}
	.st57{fill:#0081B3;}
	.st58{fill:#007DB1;}
	.st59{fill:#0071AC;}
	.st60{fill:#008AB7;}
	.st61{fill:#007BB0;}
	.st62{fill:#0084B5;}
	.st63{fill:#0074AD;}
	.st64{fill:#0084C7;}
	.st65{fill:#006DAB;}
	.st66{fill:#0069A9;}
	.st67{fill:#0078CC;}
	.st68{fill:#006AB6;}
	.st69{fill:#00A6E0;}
	.st70{fill:#0061A5;}
	.st71{fill:#0094C9;}
	.st72{fill:#007BCE;}
	.st73{fill:#00A2DF;}
	.st74{fill:#009DDD;}
	.st75{fill:#0085D2;}
	.st76{fill:#0081D0;}
	.st77{fill:#0094D9;}
	.st78{fill:#0085C3;}
	.st79{fill:#0080C1;}
	.st80{fill:#007CBF;}
	.st81{fill:#0096D9;}
	.st82{fill:#0098DA;}
	.st83{fill:#009ADB;}
	.st84{fill:#0096CA;}
	.st85{fill:#00A0DD;}
	.st86{fill:#0090C7;}
	.st87{fill:#008AC5;}
	.st88{fill:#00A9E5;}
	.st89{fill:#00ABE6;}
	.st90{fill:#0089C4;}
	.st91{fill:#0082C1;}
	.st92{fill:#007ABE;}
	.st93{fill:#0064A6;}
	.st94{fill:#0073BB;}
	.st95{fill:#006DB8;}
</style>
<path class="st0" d="M3626.2,1243.5c0.1,1.6-0.2,3.1-1.6,4.2C3624.5,1246.1,3624.8,1244.6,3626.2,1243.5z"/>
<path class="st1" d="M3594.9,1365.8c0.1,0.5,0.3,0.9,0.4,1.4c0,0.1-0.4,0.3-0.7,0.5C3594.6,1367.1,3594.8,1366.4,3594.9,1365.8z"/>
<g>
	<path class="st2" d="M128.4,34.8c2.1-0.2,4.1-0.4,6.2-0.5c2.3-0.1,4.6-0.1,6.8-0.1c1.6,0,3.2,0.1,4.8,0.2c2.6,0.1,5.2,0.4,7.8,0.8
		c2.8,0.4,5.6,0.9,8.4,1.6c0.2,0.5-0.2,0.7-0.5,0.9c-0.6,0.4-1.2,0.8-1.8,1.1c-7.7,4.4-15.4,8.9-23.1,13.3c-8.7,5-17.3,10-26,15
		c-7.2,4.1-14.4,8.3-21.6,12.5c-9.9,5.7-19.8,11.5-29.8,17.2c-5.8,3.4-11.6,6.7-17.5,10.1c-0.5,0.3-1,0.7-1.5,0c0-0.1,0-0.2,0-0.3
		c0-0.2,0.1-0.4,0.1-0.6c0-0.1,0-0.2,0.1-0.2c0-0.2,0.1-0.3,0.1-0.5c0.1-0.3,0.2-0.6,0.3-0.9c1.4-4.3,3-8.5,5.1-12.5
		c0.1-0.1,0.1-0.2,0.2-0.3c0-0.1,0.1-0.1,0.1-0.2c0.1-0.1,0.1-0.2,0.2-0.3c0-0.1,0.1-0.1,0.1-0.2c0-0.1,0.1-0.2,0.1-0.3
		c0-0.1,0.1-0.1,0.1-0.2c0-0.1,0.1-0.1,0.1-0.2c0-0.1,0.1-0.1,0.1-0.2c0-0.1,0.1-0.1,0.1-0.2c0-0.1,0.1-0.1,0.1-0.2
		c0-0.1,0.1-0.2,0.1-0.3c0-0.1,0.1-0.1,0.1-0.2c0-0.1,0.1-0.1,0.1-0.2c0,0,0.1-0.1,0.1-0.1c0.1-0.1,0.1-0.2,0.1-0.3
		c0-0.1,0.1-0.1,0.1-0.2c0-0.1,0.1-0.2,0.1-0.3c0-0.1,0.1-0.2,0.1-0.2c2.9-5.4,6.2-10.5,10.1-15.3c0.1-0.1,0.2-0.2,0.3-0.3
		c0-0.1,0.1-0.1,0.1-0.2c0-0.1,0.1-0.1,0.2-0.2c0,0,0.1-0.1,0.1-0.1c0-0.1,0.1-0.1,0.2-0.2c0,0,0.1-0.1,0.1-0.1
		c4-4.9,8.4-9.3,13.2-13.4c4-3.4,8.3-6.4,12.8-9.2c0.1-0.1,0.2-0.1,0.3-0.2c0.1,0,0.1-0.1,0.2-0.1c0.1,0,0.1-0.1,0.2-0.1
		c0,0,0.1,0,0.1-0.1c0.1,0,0.1-0.1,0.2-0.1c0.1,0,0.1-0.1,0.2-0.1c0.1,0,0.2-0.1,0.3-0.1c0.1,0,0.1-0.1,0.2-0.1
		c0.1,0,0.1-0.1,0.2-0.1c0,0,0.1-0.1,0.1-0.1c0,0,0.1-0.1,0.2-0.1c0.1,0,0.1-0.1,0.2-0.1c0.1,0,0.2-0.1,0.2-0.1
		c0.1,0,0.1-0.1,0.2-0.1c0.1,0,0.2-0.1,0.2-0.1c0.1,0,0.1-0.1,0.2-0.1c0.1,0,0.1-0.1,0.2-0.1c0,0,0.1,0,0.1-0.1
		c0.1,0,0.1-0.1,0.2-0.1c0.1,0,0.1-0.1,0.2-0.1c0.1,0,0.1-0.1,0.2-0.1c0.1-0.1,0.2-0.1,0.2-0.1c6-3.3,12.3-6,18.9-8
		c6.1-1.9,12.4-3.2,18.8-4C127.6,34.6,128,34.7,128.4,34.8z"/>
	<path class="st3" d="M102.1,232.5c-1.9-0.6-3.7-1.5-5.5-2.3c-0.8-0.4-1.6-0.7-2.4-1.2c-0.1,0-0.1-0.1-0.2-0.1c-0.1,0-0.1,0-0.1-0.1
		c-0.1,0-0.1-0.1-0.2-0.1c-0.1,0-0.1,0-0.1-0.1c-0.1,0-0.1-0.1-0.2-0.1c-0.1,0-0.1,0-0.1-0.1c-0.1,0-0.1-0.1-0.2-0.1
		c-0.1,0-0.1,0-0.1-0.1c-0.1,0-0.1-0.1-0.2-0.1c-0.1,0-0.1,0-0.1-0.1c-0.1,0-0.1-0.1-0.2-0.1c-0.1,0-0.1,0-0.1-0.1
		c-0.1,0-0.1-0.1-0.2-0.1c-0.1,0-0.1,0-0.1-0.1c-0.1,0-0.1-0.1-0.2-0.1c-0.1,0-0.1,0-0.1-0.1c-0.1,0-0.1-0.1-0.2-0.1l0,0
		c-0.5-0.5-0.1-0.7,0.3-1c0.6-0.5,1.3-0.8,2-1.2c10.7-6.2,21.5-12.4,32.3-18.6c6.4-3.7,12.9-7.4,19.3-11.1c0.3-0.2,0.7-0.4,0.9-0.7
		c1-0.5,2.1-0.4,3.2-0.7c5-1,9.8-2.2,14.3-4.6c5-2.6,9-6.3,11.9-11.2c0.2-0.3,0.3-0.7,0.7-0.9c1.4-0.4,2.6-1.3,3.8-2
		c9-5.2,18-10.4,27-15.6c8.4-4.9,16.8-9.7,25.2-14.6c3-1.7,6-3.5,9-5.2c0.4-0.2,0.9-0.7,1.3-0.4c0.5,0.3,0.2,0.9,0.1,1.4
		c0.1,2.5-0.2,5-0.5,7.5c-0.1,0.9-0.2,1.8-0.3,2.7c0.1,0.3,0,0.6-0.1,0.8c-3.7,1.7-7.1,3.9-10.6,5.9c-9.9,5.7-19.8,11.4-29.7,17.1
		c-8.4,4.9-16.8,9.7-25.2,14.6c-8.6,5-17.3,10-25.9,14.9c-8.4,4.9-16.8,9.7-25.2,14.6c-7,4-13.9,8.1-20.9,12
		C103.2,231.6,102.6,232,102.1,232.5z"/>
	<path class="st4" d="M41.1,106.6c0.1,0.5,0.5,0.5,0.8,0.3c1.2-0.7,2.4-1.4,3.7-2.1c2-1.1,3.9-2.3,5.9-3.4c1.9-1.1,3.8-2.2,5.7-3.3
		c2.2-1.3,4.5-2.6,6.8-3.9c2.3-1.3,4.7-2.7,7-4.1c2.2-1.3,4.5-2.6,6.8-3.9c2.3-1.3,4.7-2.7,7-4.1c2.7-1.6,5.4-3.1,8.1-4.6
		c2.6-1.5,5.3-3.1,7.9-4.6c2.4-1.4,4.7-2.7,7.1-4.1c2.2-1.3,4.4-2.6,6.6-3.8c1.9-1.1,3.8-2.2,5.7-3.2c1.9-1.1,3.7-2.1,5.6-3.2
		c1.9-1.1,3.8-2.2,5.7-3.3c2.2-1.3,4.4-2.6,6.7-3.9c1.9-1.1,3.8-2.2,5.7-3.3c1.9-1.1,3.9-2.2,5.8-3.4c1.9-1.1,3.8-2.2,5.7-3.3
		c2.2-1.3,4.4-2.5,6.6-3.8c0.4-0.2,0.8-0.4,0.9-0.9c4.3,0.9,8.4,2.2,12.5,3.7c0.1,0,0.2,0.1,0.2,0.2c0.2,0.6-0.3,0.8-0.7,1.1
		c-3.3,1.9-6.7,3.9-10,5.8c-6.8,4-13.7,7.9-20.6,11.9c-8.6,5-17.3,10-25.9,14.9c-6.7,3.8-13.3,7.7-20,11.5
		c-8.7,5-17.4,10.1-26.2,15.1c-6.7,3.9-13.4,7.8-20.1,11.6c-4.2,2.4-8.4,4.9-12.6,7.3c-0.4,0.2-1,0.9-1.4,0c0-0.2,0-0.4,0-0.6
		c0.1-0.2,0.1-0.5,0.1-0.7c0.5-3.8,1.5-7.4,2.5-11.1C40.5,107.1,40.6,106.7,41.1,106.6z"/>
	<path class="st5" d="M38,119.7c0,0.4,0.3,0.3,0.5,0.2c0.4-0.2,0.9-0.4,1.3-0.7c2.6-1.5,5.3-3.1,7.9-4.6c1.9-1.1,3.8-2.2,5.7-3.3
		c1.9-1.1,3.7-2.1,5.6-3.2c1.9-1.1,3.9-2.2,5.8-3.4c2.2-1.3,4.4-2.5,6.6-3.8c1.9-1.1,3.8-2.2,5.7-3.3c1.9-1.1,3.8-2.2,5.7-3.3
		c1.9-1.1,3.9-2.2,5.8-3.4c1.7-1,3.5-2,5.2-3.1c1.9-1.1,3.8-2.2,5.7-3.3c1.9-1.1,3.8-2.2,5.7-3.3c1.9-1.1,3.8-2.2,5.7-3.3
		c2.2-1.3,4.5-2.6,6.7-3.9c1.9-1.1,3.8-2.2,5.7-3.3c1.9-1.1,3.8-2.2,5.7-3.3c1.9-1.1,3.8-2.2,5.7-3.3c2.2-1.3,4.5-2.6,6.7-3.9
		c1.9-1.1,3.8-2.2,5.7-3.3c1.9-1.1,3.8-2.2,5.7-3.3c1.9-1.1,3.8-2.2,5.7-3.3c1.8-1,3.6-2.1,5.3-3.1c1.9-1.1,3.9-2.2,5.8-3.4
		c1.8-1,3.6-2,5.3-3.1c0.3-0.2,0.5-0.4,0.6-0.7c2.1,0.6,4.1,1.5,6.1,2.4c1.1,0.5,2.3,0.9,3.3,1.6c-0.9,1.1-2.2,1.5-3.3,2.2
		c-9,5.2-18,10.4-27.1,15.6c-7.3,4.2-14.5,8.4-21.8,12.6c-0.4,0.2-1,0.4-1.1,1c-0.2,0.3-0.6,0.3-1,0.3c-5.6,1-11.1,2.4-16.2,5.1
		c-5.2,2.8-9.7,6.4-12.9,11.4c-0.2,0.3-0.3,0.6-0.7,0.8c-0.9,0.1-1.5,0.6-2.3,1c-9,5.2-18,10.4-27.1,15.6
		c-8.4,4.8-16.8,9.7-25.1,14.5c-1.8,1-3.6,2-5.3,3.1c-1.4,0.9-3.1,1.4-4,2.9c0-2.5,0.4-4.9,0.6-7.3c0.1-0.6,0.2-1.3,0.3-1.9
		C37.4,121,37.2,120.3,38,119.7z"/>
	<path class="st6" d="M102.1,232.5c0-0.4,0.2-0.6,0.5-0.8c1.2-0.7,2.4-1.4,3.7-2.1c3.6-2.1,7.2-4.2,10.8-6.3
		c3.1-1.8,6.3-3.6,9.4-5.4c3.1-1.8,6.1-3.6,9.2-5.4c2.4-1.4,4.7-2.7,7.1-4.1c2.2-1.3,4.4-2.6,6.6-3.8c2.4-1.4,4.7-2.7,7.1-4.1
		c2.2-1.3,4.4-2.6,6.6-3.8c1.9-1.1,3.8-2.2,5.7-3.2c1.9-1.1,3.7-2.1,5.6-3.2c1.9-1.1,3.8-2.2,5.7-3.3c2.2-1.3,4.5-2.6,6.7-3.9
		c1.9-1.1,3.8-2.2,5.7-3.3c1.9-1.1,3.8-2.2,5.7-3.3c1.9-1.1,3.7-2.2,5.6-3.2c1.8-1.1,3.7-2.1,5.5-3.2c1.9-1.1,3.8-2.2,5.7-3.3
		c1.9-1.1,3.8-2.2,5.7-3.3c1.9-1.1,3.8-2.2,5.7-3.3c2.2-1.3,4.4-2.6,6.7-3.8c1.9-1.1,3.9-2.2,5.8-3.4c0.5-0.3,1-0.6,1.5-0.9
		c0.3-0.2,0.7-0.3,1.1-0.3c0.3,0.3,0.2,0.7,0.2,1c-0.1,1.2-0.4,2.3-0.6,3.5c0,0.1,0,0.3-0.1,0.4c-0.1,0.2-0.1,0.4-0.2,0.7
		c0,0.1,0,0.3-0.1,0.4c-0.1,0.2-0.1,0.4-0.1,0.6c-0.3,1.1-0.4,2.2-0.9,3.3c-9.1,5.2-18.2,10.5-27.3,15.7
		c-7.9,4.6-15.8,9.1-23.7,13.7c-9.1,5.2-18.2,10.5-27.2,15.7c-7.6,4.4-15.2,8.8-22.8,13.2c-8.5,4.9-16.9,9.8-25.4,14.7
		c-0.4,0.2-0.8,0.4-0.9,0.9c-1.2-0.2-2.3-0.6-3.4-0.9c-2-0.6-4.1-1.3-6-2.1c-0.1-0.1-0.3-0.1-0.4-0.2L102.1,232.5L102.1,232.5z"/>
	<path class="st7" d="M112.1,235.8c-0.3-0.3-0.5-0.5,0-0.8c2.2-1.2,4.3-2.5,6.5-3.7c3.1-1.8,6.3-3.6,9.4-5.5c2.4-1.4,4.7-2.7,7.1-4
		c2.2-1.3,4.4-2.6,6.6-3.8c2.4-1.4,4.7-2.7,7.1-4.1c2.6-1.5,5.3-3.1,7.9-4.6c1.9-1.1,3.8-2.2,5.7-3.2c1.9-1.1,3.7-2.1,5.6-3.2
		c1.9-1.1,3.8-2.2,5.7-3.3c1.8-1,3.6-2.1,5.3-3.1c1.9-1.1,3.9-2.2,5.8-3.4c1.9-1.1,3.7-2.1,5.6-3.2c1.9-1.1,3.8-2.2,5.7-3.3
		c2.2-1.3,4.5-2.6,6.7-3.9c1.9-1.1,3.8-2.2,5.7-3.3c1.9-1.1,3.8-2.2,5.7-3.3c1.9-1.1,3.8-2.2,5.7-3.3c2.2-1.3,4.5-2.6,6.7-3.9
		c1.9-1.1,3.8-2.2,5.7-3.3c1.9-1.1,3.8-2.2,5.7-3.3c0.4-0.3,0.9-0.6,1.4-0.6c0.3,0.5-0.1,0.9-0.1,1.3c0,0.1-0.1,0.3-0.1,0.4
		c-0.1,0.2-0.1,0.4-0.1,0.5c-0.6,2.3-1.3,4.5-2.1,6.7c0,0.1-0.1,0.2-0.1,0.3c0,0.1-0.1,0.3-0.1,0.4c-0.2,0.7-0.5,1.4-0.9,2
		c-2,1.2-4,2.4-6,3.5c-7.2,4.2-14.4,8.3-21.6,12.5c-8.7,5-17.4,10.1-26.2,15.1c-7.2,4.1-14.4,8.3-21.6,12.4
		c-9.9,5.7-19.8,11.4-29.7,17.1c-2.3,1.3-4.7,2.5-6.9,4.1c-1.9-0.2-3.8-0.6-5.8-1c-1.9-0.4-3.9-0.9-5.8-1.4
		C112.3,235.9,112.2,235.8,112.1,235.8z"/>
	<path class="st8" d="M123.9,238.3c0-0.4,0.3-0.6,0.6-0.8c2.6-1.5,5.3-3,7.9-4.5c2.2-1.3,4.4-2.6,6.6-3.8c2.4-1.4,4.7-2.7,7.1-4.1
		c2.2-1.3,4.4-2.6,6.6-3.8c1.9-1.1,3.8-2.2,5.7-3.2c1.9-1.1,3.7-2.1,5.6-3.2c1.9-1.1,3.8-2.2,5.7-3.3c2.2-1.3,4.4-2.6,6.7-3.8
		c1.9-1.1,3.9-2.2,5.8-3.4c1.9-1.1,3.8-2.2,5.7-3.3c1.9-1.1,3.7-2.1,5.6-3.2c2.2-1.3,4.5-2.6,6.7-3.9c1.9-1.1,3.8-2.2,5.7-3.3
		c1.9-1.1,3.8-2.2,5.7-3.3c2.3-1.3,4.5-2.6,6.8-4c1.9-1.1,3.8-2.2,5.7-3.3c1.9-1.1,3.8-2.2,5.7-3.2c1.4-0.8,2.8-1.6,4.2-2.5
		c0.6-0.4,1.3-0.6,1.9-1c0.3,0.4,0,0.8-0.2,1.2c-1,2.4-2,4.8-3.2,7.1c0,0.1-0.1,0.2-0.1,0.2c-0.1,0.1-0.1,0.2-0.2,0.3
		c0,0.1-0.1,0.1-0.1,0.2c-0.1,0.2-0.1,0.3-0.2,0.5c-0.7,1.5-1.4,2.9-2.4,4.1c-1.8,0.7-3.4,1.8-5.1,2.8c-9.5,5.5-18.9,10.9-28.4,16.4
		c-8,4.6-15.9,9.2-23.9,13.8c-9.1,5.2-18.2,10.5-27.2,15.7c-2.1,1.2-4.3,2.4-6.3,3.7c-1.4,0-2.8,0-4.2-0.1c-1.3-0.1-2.6-0.1-3.9-0.3
		c-0.4-0.2-0.8,0-1.2-0.2c-0.2,0-0.5,0-0.7,0c-0.3-0.2-0.7,0-1-0.2c-0.2,0-0.5,0-0.7-0.1c-0.3-0.1-0.6,0-0.8-0.1
		c-0.2,0-0.5,0-0.7-0.1c-0.2-0.1-0.5,0-0.8-0.1C124.1,238.3,124,238.3,123.9,238.3z"/>
	<path class="st9" d="M56.7,197.9c-2.1-2.7-4-5.5-5.6-8.4c-0.1-0.5,0.4-0.6,0.7-0.8c6.8-3.9,13.5-7.8,20.3-11.7
		c6.7-3.9,13.5-7.8,20.2-11.7c8.7-5,17.5-10.1,26.2-15.1c3.8-2.2,7.6-4.3,11.3-6.6c0.1-0.1,0.3-0.2,0.4-0.2c1.4,0.2,2.6,1,3.9,1.5
		c2.4,1,4.7,2.1,7.1,3.3c0.3,0.1,0.5,0.2,0.6,0.5c-0.1,0.5-0.5,0.7-0.9,1c-10,5.8-20,11.6-30.1,17.4c-0.4,0.2-0.7,0.5-1.1,0.6
		c-0.5,0.2-0.7,0.6-0.7,1.1c-0.4,0.2-0.7,0.1-1.1,0.1c-3.5-0.3-6.6,0.5-9,3.4c-0.5,0.6-0.9,1.3-1.1,2c-0.1,0.3-0.2,0.7-0.5,0.9
		c-1.1,0.1-2,0.8-2.9,1.4c-12.2,7.1-24.4,14.1-36.6,21.1C57.5,197.7,57.2,198,56.7,197.9z"/>
	<path class="st10" d="M218.8,71.5c1.9,2.2,3.7,4.5,5.3,7c-0.1,0.3-0.4,0.5-0.7,0.6c-10.2,5.8-20.4,11.8-30.6,17.6
		c-7.9,4.6-15.9,9.2-23.8,13.8c-7.8,4.5-15.6,9-23.4,13.5c-0.6,0.4-1.2,0.7-1.7,1.3c-0.3,0.1-0.6,0-0.8-0.1
		c-1.9-0.9-3.9-1.6-5.8-2.6c-0.1-0.1-0.2-0.2-0.4-0.3c-0.1,0-0.1-0.1-0.2-0.1c-0.1,0-0.2-0.1-0.3-0.1c-0.1,0-0.1-0.1-0.2-0.1
		c-0.1,0-0.2-0.1-0.3-0.1c-0.1,0-0.1-0.1-0.2-0.1c-0.1,0-0.2-0.1-0.3-0.1c-0.1,0-0.1,0-0.2-0.1c-0.1,0-0.2-0.1-0.3-0.1
		c-0.1,0-0.1,0-0.2-0.1c-0.1,0-0.2-0.1-0.3-0.1c-0.1,0-0.1-0.1-0.2-0.1c-0.1,0-0.2-0.1-0.3-0.1c-0.1,0-0.1-0.1-0.2-0.1
		c-0.1,0-0.2-0.1-0.3-0.1c-0.1,0-0.1-0.1-0.2-0.1c-0.1-0.1-0.2-0.1-0.3-0.3c0-0.1,0-0.2,0-0.3c1.1-1.1,2.6-1.7,3.9-2.5
		c9-5.2,18.1-10.4,27.1-15.7c1.2-0.7,2.5-1.3,3.5-2.2c1.8-0.5,3.4-1.5,4.8-2.8c1.4-0.4,2.6-1.3,3.8-2c12.4-7.2,24.9-14.4,37.3-21.5
		c1.3-0.7,2.6-1.5,3.8-2.2c0.2-0.1,0.5-0.4,0.8-0.3l0,0c0.1,0.1,0.1,0.1,0.2,0.2l0,0C218.7,71.4,218.8,71.4,218.8,71.5z"/>
	<path class="st11" d="M144,125.2c-0.2-0.4,0.1-0.6,0.4-0.8c1.2-0.7,2.4-1.4,3.6-2.1c2.3-1.3,4.5-2.6,6.8-4c1.9-1.1,3.7-2.1,5.6-3.2
		c1.9-1.1,3.9-2.2,5.8-3.4c1.9-1.1,3.8-2.2,5.7-3.3c2.2-1.3,4.4-2.5,6.6-3.8c1.9-1.1,3.8-2.2,5.7-3.3c1.9-1.1,3.9-2.2,5.8-3.4
		c1.9-1.1,3.8-2.2,5.7-3.3c2.2-1.3,4.4-2.5,6.6-3.8c1.9-1.1,3.8-2.2,5.7-3.3c1.9-1.1,3.9-2.2,5.8-3.4c1.9-1.1,3.8-2.2,5.7-3.3
		c1.4-0.8,2.9-1.7,4.3-2.5c0.1-0.1,0.3-0.2,0.4-0.2c1.3,1.6,2.4,3.4,3.5,5.2c0.6,1,1.3,2,1.8,3.1c-2.3,1.4-4.7,2.7-7.1,4.1
		c-10.5,6.1-21,12.2-31.6,18.2c-8,4.6-15.9,9.2-23.9,13.8c-3.6,2.1-7.2,4.1-10.8,6.2c-0.4,0.2-0.8,0.5-1.2,0.8
		c-0.7,0.1-1.2-0.3-1.8-0.6c-2.8-1.3-5.7-2.4-8.5-3.7c-0.2-0.1-0.3-0.2-0.4-0.4C144,125.3,144,125.2,144,125.2z"/>
	<path class="st11" d="M130.3,143.5c-1.4,1.1-2.9,1.8-4.4,2.7c-2.2,1.3-4.5,2.6-6.7,3.9c-1.9,1.1-3.8,2.2-5.7,3.3
		c-1.9,1.1-3.8,2.2-5.7,3.3c-1.9,1.1-3.8,2.2-5.7,3.3c-1.8,1-3.6,2.1-5.3,3.1c-1.9,1.1-3.9,2.2-5.8,3.4c-1.9,1.1-3.7,2.1-5.6,3.2
		c-1.9,1.1-3.8,2.2-5.7,3.3c-2.2,1.3-4.5,2.6-6.7,3.9c-1.9,1.1-3.8,2.2-5.7,3.3c-1.9,1.1-3.8,2.2-5.7,3.3c-1.9,1.1-3.8,2.2-5.7,3.3
		c-1.4,0.8-2.8,1.6-4.3,2.4c-0.2,0.1-0.5,0.3-0.7,0.5c-0.9-1.1-1.5-2.4-2.2-3.6c-0.9-1.6-1.8-3.2-2.5-4.9c0-0.6,0.6-0.7,1-0.9
		c3.7-2.2,7.4-4.3,11.2-6.5c6.5-3.7,13-7.5,19.6-11.3c11.2-6.4,22.3-12.9,33.5-19.3c2.2-1.3,4.5-2.5,6.7-3.9
		c0.4-0.2,0.7-0.5,1.1-0.5c0.3,0,0.6,0.1,0.8,0.2c3,1.5,6.1,2.8,9.3,4.1C129.9,143,130.2,143.1,130.3,143.5z"/>
	<path class="st9" d="M154.7,129.8c0.1-0.5,0.5-0.6,0.9-0.8c2.9-1.7,5.7-3.3,8.6-5c3.1-1.8,6.3-3.6,9.4-5.4c2.6-1.5,5.3-3.1,7.9-4.6
		c2.4-1.4,4.7-2.7,7.1-4.1c2.2-1.3,4.4-2.6,6.6-3.8c2.4-1.4,4.7-2.7,7.1-4.1c2.2-1.3,4.4-2.6,6.6-3.8c1.9-1.1,3.8-2.2,5.7-3.2
		c1.9-1.1,3.8-2.2,5.7-3.3c1.9-1.1,3.8-2.2,5.7-3.3c0.8-0.5,1.6-0.9,2.4-1.4c0.3-0.2,0.6-0.4,1-0.3c0.5,0.6,0.8,1.4,1.2,2.1
		c1.2,2.2,2.2,4.4,3.2,6.6c0,0.1,0,0.2,0,0.3c-0.7,0.8-1.7,1.2-2.6,1.7c-9,5.2-18,10.4-27,15.6c-10.3,5.9-20.6,11.9-30.9,17.8
		c-2.8,1.6-5.5,3.2-8.2,4.8c-0.3,0.1-0.6,0-0.8-0.2c-3-2-6.1-3.6-9.2-5.3c-0.1-0.1-0.1-0.1-0.2-0.2
		C154.8,129.9,154.8,129.9,154.7,129.8z"/>
	<path class="st12" d="M242.2,141c0-0.4,0.1-0.8-0.1-1.3c-0.6,0-1,0.4-1.5,0.6c-2.3,1.3-4.6,2.7-6.9,4c-1.9,1.1-3.7,2.2-5.6,3.2
		c-1.9,1.1-3.7,2.1-5.6,3.2c-1.8,1-3.6,2.1-5.3,3.1c-1.9,1.1-3.9,2.2-5.8,3.4c-1.9,1.1-3.8,2.2-5.7,3.3c-1.9,1.1-3.7,2.1-5.6,3.2
		c-2.2,1.3-4.5,2.6-6.7,3.9c-1.9,1.1-3.7,2.2-5.6,3.2c-1.9,1.1-3.8,2.2-5.7,3.2c-1.8,1-3.6,2.1-5.4,3.2c-0.3,0.2-0.7,0.2-1,0.2
		c-0.2-0.3-0.1-0.6,0-0.8c1.9-3.7,2.8-7.7,3.3-11.8c0.1-0.5,0.5-0.7,0.9-0.9c11.5-6.6,23-13.3,34.6-20c8.7-5,17.5-10.1,26.2-15.1
		c0.4-0.2,0.7-0.6,1.2-0.2c0,0.2,0,0.4,0,0.6c0.2,0.5,0,1,0.1,1.6c0.1,0.9,0.2,1.9,0.2,2.8c0,2.2,0,4.3,0,6.5
		C242.4,140.4,242.5,140.8,242.2,141z"/>
	<path class="st10" d="M119.5,138.7c-1.9,1.2-3.8,2.2-5.7,3.3c-2.2,1.3-4.4,2.5-6.6,3.8c-1.9,1.1-3.8,2.2-5.7,3.3
		c-1.9,1.1-3.8,2.2-5.7,3.2c-2,1.1-3.9,2.3-5.9,3.4c-2.2,1.3-4.3,2.5-6.5,3.8c-1.9,1.1-3.8,2.2-5.7,3.3c-1.9,1.1-3.9,2.2-5.8,3.4
		c-2.2,1.3-4.5,2.6-6.7,3.9c-1.9,1.1-3.8,2.2-5.7,3.3c-1.9,1.1-3.8,2.1-5.7,3.2c-2.5,1.5-5,2.8-7.4,4.4c-0.7-1.2-1.3-2.6-1.8-3.9
		c-0.6-1.4-1.3-2.9-1.7-4.4c1.1-1.1,2.6-1.7,3.9-2.4c8.5-5,17.1-9.9,25.6-14.8c10.3-6,20.6-11.9,31-17.9c2.1-1.2,4.2-2.4,6.3-3.6
		c0.3-0.2,0.5-0.4,0.9-0.4c0.1,0,0.2,0,0.3,0c0.1,0,0.3,0.1,0.4,0.1c2.6,1.5,5.1,3,7.7,4.4C119.2,138.2,119.5,138.4,119.5,138.7z"/>
	<path class="st13" d="M138.4,239.4c0-0.3,0.3-0.5,0.5-0.6c1.6-0.9,3.2-1.8,4.7-2.8c3.6-2.1,7.2-4.2,10.7-6.2
		c3.1-1.8,6.3-3.6,9.4-5.4c3.1-1.8,6.1-3.6,9.2-5.4c2.4-1.4,4.7-2.7,7.1-4.1c2.2-1.3,4.4-2.6,6.6-3.8c2.4-1.4,4.7-2.7,7.1-4.1
		c2.2-1.3,4.4-2.6,6.6-3.8c1.9-1.1,3.8-2.2,5.7-3.2c1.9-1.1,3.7-2.1,5.6-3.2c1.9-1.1,3.8-2.2,5.7-3.3c2.2-1.3,4.4-2.6,6.7-3.9
		c1.4-0.8,2.8-1.6,4.2-2.4c0.4-0.2,0.8-0.4,1.2-0.3c0.2,0.5-0.2,0.8-0.4,1.2c-0.4,0.7-0.8,1.4-1.2,2c0,0.1-0.1,0.1-0.1,0.2
		c0,0.1-0.1,0.1-0.1,0.2c0,0,0,0.1-0.1,0.1c-0.1,0.1-0.1,0.2-0.2,0.3c0,0.1-0.1,0.1-0.1,0.2c0,0.1-0.1,0.1-0.1,0.2
		c0,0.1-0.1,0.1-0.1,0.2c-0.1,0.1-0.1,0.2-0.2,0.3c-1.5,2.3-3.1,4.6-4.8,6.8c-0.1,0.1-0.1,0.1-0.2,0.2c-0.1,0.1-0.2,0.3-0.3,0.4
		c-0.7,0.8-1.2,1.7-2,2.3c-3.4,1.6-6.5,3.6-9.7,5.5c-9.2,5.3-18.3,10.6-27.5,15.9c-7.9,4.6-15.9,9.2-23.8,13.8
		c-0.9,0.5-1.7,1-2.5,1.6c-1.3,0.4-2.6,0.6-4,0.6c-1.1-0.1-2.1,0.1-3.1,0.2c-3.1,0.2-6.3,0.4-9.4,0.4
		C139,239.5,138.7,239.5,138.4,239.4z"/>
	<path class="st14" d="M242,128.7c-0.9,0-1.6,0.7-2.3,1.1c-2,1.1-4,2.3-5.9,3.4c-2.2,1.3-4.3,2.5-6.5,3.8c-1.9,1.1-3.8,2.2-5.7,3.3
		c-1.9,1.1-3.9,2.2-5.8,3.4c-1.8,1.1-3.7,2.1-5.5,3.2c-2.2,1.3-4.5,2.6-6.7,3.9c-1.9,1.1-3.9,2.2-5.8,3.4c-1.9,1.1-3.7,2.1-5.6,3.2
		c-1.9,1.1-3.7,2.2-5.6,3.2c-1.8,1.1-3.7,2.1-5.5,3.2c-0.6,0.4-1.3,0.5-1.8,1.1c-0.4-0.3-0.4-0.7-0.4-1c0-2.9,0-5.8-0.6-8.7
		c0-0.8,0.6-1.1,1.1-1.4c3.5-2,7-4.1,10.5-6.1c9.3-5.4,18.6-10.7,27.9-16.1c7.2-4.1,14.3-8.3,21.5-12.4c0.5-0.3,1.1-0.8,1.4,0.1
		c0,0.1,0,0.2,0,0.4c0.2,0.2,0,0.5,0.1,0.8C241.6,123.1,241.9,125.9,242,128.7z"/>
	<path class="st15" d="M240.8,119.2c-0.2-0.3-0.5-0.4-0.9-0.2c-1.3,0.8-2.7,1.6-4,2.3c-1.9,1.1-3.8,2.2-5.7,3.3
		c-2.2,1.3-4.4,2.6-6.7,3.8c-1.9,1.1-3.9,2.2-5.8,3.4c-1.9,1.1-3.8,2.2-5.7,3.3c-1.9,1.1-3.7,2.1-5.6,3.2c-2.2,1.3-4.5,2.6-6.7,3.9
		c-1.9,1.1-3.8,2.2-5.7,3.3c-1.9,1.1-3.8,2.2-5.7,3.3c-1.9,1.1-3.9,2.2-5.8,3.4c-1.2,0.7-2.4,1.4-3.6,2.1c-0.2,0.1-0.4,0.3-0.4,0.6
		c-0.4,0-0.4-0.4-0.5-0.7c-0.7-2.5-1.6-5-2.9-7.2c-0.1-0.2-0.2-0.5-0.2-0.7c0.2-0.6,0.8-0.8,1.2-1c6.4-3.7,12.8-7.4,19.2-11.1
		c6.8-3.9,13.6-7.9,20.5-11.8c7.2-4.1,14.4-8.3,21.6-12.4c0.4-0.2,0.8-0.6,1.1,0c0,0,0.1,0.1,0,0.2c0.1,0.1,0.1,0.3,0.1,0.4
		C239.7,113.2,240.4,116.2,240.8,119.2z"/>
	<path class="st16" d="M40.1,163.8c-0.6-1.7-1-3.5-1.3-5.3c-0.2-1.1-0.5-2.2-0.6-3.4c0-0.6,0.6-0.7,0.9-0.9
		c4.2-2.5,8.5-4.9,12.7-7.3c6.8-3.9,13.6-7.9,20.5-11.8c8.5-4.9,17-9.8,25.6-14.8c0.3-0.2,0.7-0.4,1.1-0.4c0.1,0,0.2,0,0.3,0.1
		c0.1,0.1,0.2,0.2,0.3,0.3c1.1,2.2,2.4,4.4,3.9,6.3c0.1,0.1,0.2,0.3,0.2,0.5c-0.1,0.3-0.4,0.5-0.7,0.7c-8,4.6-15.9,9.2-23.9,13.8
		c-6.8,3.9-13.5,7.8-20.3,11.7c-5.9,3.4-11.7,6.8-17.6,10.1C40.7,163.6,40.4,163.8,40.1,163.8z"/>
	<path class="st17" d="M99,120c-2.2,1.1-4.3,2.5-6.5,3.7c-1.8,1-3.7,2.1-5.5,3.2c-2.2,1.3-4.5,2.6-6.7,3.9c-1.9,1.1-3.9,2.2-5.8,3.4
		c-1.9,1.1-3.7,2.1-5.6,3.2c-2.3,1.3-4.5,2.6-6.8,3.9c-1.9,1.1-3.8,2.2-5.7,3.3c-1.9,1.1-3.8,2.2-5.8,3.3c-2.1,1.2-4.3,2.5-6.4,3.7
		c-1.9,1.1-3.7,2.2-5.6,3.2c-0.2,0.1-0.4,0.2-0.4,0.4c-0.4-1.2-0.5-2.5-0.7-3.7c-0.2-1.6-0.5-3.1-0.5-4.7c-0.1-0.2-0.1-0.5-0.1-0.7
		c0.8-0.9,2-1.3,3-1.9c9.5-5.5,19-11,28.5-16.4c9.1-5.3,18.3-10.5,27.4-15.8c0.3-0.2,0.6-0.4,1-0.3c0.1,0,0.2,0.1,0.2,0.2
		c0.2,0.3,0.2,0.6,0.3,0.8c0.5,2.2,0.9,4.5,1.7,6.6C99.1,119.4,99.2,119.7,99,120z"/>
	<path class="st18" d="M165,135.7c0.1-0.4,0.4-0.5,0.7-0.7c2.8-1.6,5.6-3.2,8.4-4.9c2.4-1.4,4.7-2.7,7.1-4.1
		c2.2-1.3,4.4-2.6,6.6-3.8c1.9-1.1,3.8-2.2,5.7-3.2c1.9-1.1,3.7-2.1,5.6-3.2c2.2-1.3,4.5-2.6,6.7-3.9c1.9-1.1,3.8-2.2,5.7-3.3
		c1.9-1.1,3.7-2.1,5.6-3.2c2.2-1.3,4.5-2.6,6.7-3.9c1.9-1.1,3.7-2.1,5.6-3.2c1.2-0.7,2.4-1.4,3.6-2.1c0.2-0.1,0.5-0.2,0.8-0.3
		c0,0,0,0,0,0c0,0.1,0.1,0.1,0.1,0.2c0.1,0,0.1,0.1,0,0.1c0,0.1,0.1,0.2,0.1,0.2c0,0.1,0,0.1,0.1,0.2c0.1,0.1,0.1,0.1,0.1,0.2
		c0,0.1,0.1,0.2,0.1,0.3c0,0.1,0.1,0.2,0.1,0.3c0.8,1.8,1.5,3.6,2.1,5.4c-0.1,0.3-0.4,0.5-0.7,0.6c-10.1,5.8-20.1,11.6-30.2,17.4
		c-7.6,4.4-15.2,8.8-22.9,13.2c-3.5,2-7,4-10.5,6.1c-0.4,0.2-0.7,0.4-1.1,0.7c-0.4,0.1-0.6-0.1-0.8-0.4c-1.6-1.4-3.2-2.8-4.9-4.1
		C165.3,136.2,165,136,165,135.7z"/>
	<path class="st19" d="M145.7,194.8c-0.1,0.4-0.4,0.5-0.8,0.7c-2.8,1.6-5.5,3.2-8.3,4.8c-1.9,1.1-3.8,2.2-5.7,3.2
		c-1.9,1.1-3.8,2.2-5.7,3.3c-1.8,1.1-3.7,2.1-5.5,3.2c-1.8,1-3.6,2.1-5.4,3.1c-1.9,1.1-3.8,2.2-5.7,3.3c-1.9,1.1-3.9,2.2-5.8,3.4
		c-1.9,1.1-3.8,2.2-5.7,3.3c-2,1.1-3.9,2.3-5.9,3.4c-0.3,0.2-0.6,0.4-0.4,0.8c-2.3-1.1-4.4-2.4-6.5-3.7c-0.9-0.6-1.9-1.1-2.8-1.9
		c-0.1-0.1-0.3-0.1-0.4-0.2l0,0c-0.3-0.7,0.3-0.8,0.6-1c4.9-2.9,9.8-5.7,14.8-8.5c7.3-4.2,14.6-8.4,21.9-12.7
		c2.4-1.4,4.8-2.7,7.1-4.2c0.4-0.2,0.8-0.3,1.2-0.4c3.9,0.2,7.8,0.1,11.6,0.2c1.9,0,3.7-0.2,5.6-0.3
		C144.7,194.6,145.2,194.4,145.7,194.8z"/>
	<path class="st20" d="M171.2,140.8c0-0.3,0.2-0.5,0.4-0.6c1.8-1,3.6-2,5.3-3.1c1.9-1.1,3.9-2.2,5.8-3.4c1.9-1.1,3.8-2.2,5.7-3.3
		c1.7-1,3.5-2,5.2-3c1.9-1.1,3.8-2.2,5.7-3.3c1.9-1.1,3.8-2.2,5.7-3.3c2-1.1,3.9-2.3,5.9-3.4c2.2-1.3,4.3-2.5,6.5-3.8
		c1.9-1.1,3.8-2.2,5.7-3.3c1.9-1.1,3.8-2.2,5.7-3.3c2-1.1,3.9-2.3,5.9-3.4c0.6-0.4,1.3-0.7,1.9-1.1c0.8,2.3,1.6,4.6,2.1,6.9
		c-0.3-0.2-0.5-0.1-0.8,0c-3,1.8-6,3.5-9,5.3c-2.4,1.4-4.7,2.7-7.1,4.1c-2.2,1.3-4.4,2.6-6.6,3.8c-1.9,1.1-3.8,2.2-5.7,3.2
		c-1.9,1.1-3.7,2.1-5.6,3.2c-1.9,1.1-3.9,2.2-5.8,3.4c-2.2,1.3-4.4,2.5-6.6,3.8c-1.9,1.1-3.8,2.2-5.7,3.3c-1.9,1.1-3.8,2.2-5.7,3.3
		c-1.7,1-3.4,2-5.1,3c-0.7-0.1-0.9-0.9-1.3-1.3c-0.4-0.4-0.7-0.8-0.9-1.3c0-0.1-0.1-0.1-0.1-0.2c0,0,0-0.1-0.1-0.1
		c0-0.1-0.1-0.1-0.1-0.2c0-0.1-0.1-0.1-0.1-0.2c0-0.1-0.1-0.1-0.1-0.2c0,0,0-0.1-0.1-0.1c0,0-0.1-0.1-0.1-0.1c0,0-0.1-0.1-0.1-0.1
		c0,0-0.1-0.1-0.1-0.1c0,0-0.1-0.1-0.1-0.1c0,0-0.1-0.1-0.1-0.1c0,0-0.1-0.1-0.1-0.1c0,0-0.1-0.1-0.1-0.1c0,0-0.1-0.1-0.1-0.1
		c0,0-0.1-0.1-0.1-0.1c0,0-0.1-0.1-0.1-0.1c0,0-0.1-0.1-0.1-0.1c0-0.1-0.1-0.1-0.1-0.2C171.2,141.1,171.2,141,171.2,140.8
		C171.2,140.9,171.2,140.8,171.2,140.8z"/>
	<path class="st14" d="M126.6,195c-0.2,0-0.4,0-0.6,0.2c-2.6,1.8-5.5,3.2-8.2,4.8c-2.6,1.5-5.3,3.1-7.9,4.6
		c-2.4,1.4-4.7,2.7-7.1,4.1c-2.2,1.3-4.4,2.6-6.6,3.8c-1.9,1.1-3.8,2.2-5.8,3.3c-2.6,1.5-5.3,3.1-7.9,4.6c-0.3,0.2-0.6,0.3-0.9,0.5
		c-0.3,0.1-0.5,0.3-0.5,0.6c-2.4-1.6-4.8-3.3-7-5.2c-0.1-0.1-0.1-0.1-0.2-0.2l0,0c-0.1-0.1-0.1-0.1-0.2-0.2l0,0
		c0-0.1-0.1-0.2-0.2-0.2c-0.1,0-0.1,0-0.1-0.1c-0.2-0.7,0.3-0.8,0.7-1.1c2.4-1.4,4.9-2.8,7.3-4.3c7.2-4.2,14.5-8.4,21.7-12.5
		c3.1-1.8,6.3-3.5,9.3-5.4c0.2-0.1,0.4-0.2,0.6-0.2c1.5,0.1,2.9,0.7,4.4,1c2.7,0.6,5.4,1.1,8.2,1.4
		C126.1,194.6,126.5,194.6,126.6,195z"/>
	<path class="st21" d="M36.7,131c0-0.9,0.6-1.3,1.4-1.7c1.9-1,3.8-2.2,5.7-3.3c1.9-1.1,3.9-2.2,5.8-3.4c2.2-1.3,4.5-2.6,6.7-3.9
		c1.9-1.1,3.8-2.2,5.7-3.3c1.9-1.1,3.8-2.2,5.7-3.2c2.2-1.3,4.4-2.5,6.6-3.8c1.9-1.1,3.8-2.2,5.7-3.3c1.9-1.1,3.8-2.2,5.7-3.3
		c1.9-1.1,3.9-2.2,5.8-3.4c2.2-1.3,4.4-2.5,6.6-3.8c0.6-0.3,1.2-0.7,1.7-1c0.2-0.1,0.5-0.3,0.7,0c0,0,0,0.1,0,0.1c0,0.1,0,0.1,0,0.2
		c0,0.1,0,0.1-0.1,0.2c0,0.1-0.1,0.1-0.1,0.2c0,0.1-0.1,0.1-0.1,0.2c0,0.1-0.1,0.2-0.1,0.3c0,0.1-0.1,0.1-0.1,0.2
		c0,0.1-0.1,0.1-0.1,0.2c0,0,0,0.1-0.1,0.1c0,0.1-0.1,0.2-0.1,0.3c0,0.1,0,0.2-0.1,0.2c0,0.1-0.1,0.3-0.1,0.4c-0.8,2-1.5,3.9-1.8,6
		c0,0.2-0.1,0.5-0.4,0.6c-0.5,0-0.9,0.2-1.3,0.4c-7.3,4.2-14.6,8.4-21.9,12.6c-8.7,5-17.3,10-26,15c-3.5,2-6.9,4.1-10.5,6
		c-0.5,0.3-0.7,0.6-0.7,1.2c0,0.6,0,1.2,0,1.8c0,0.3,0.1,0.7-0.3,1c-0.2-0.3-0.1-0.6-0.1-0.9c0-2,0-4.1,0-6.1
		C36.5,132.9,36.6,131.9,36.7,131z"/>
	<path class="st22" d="M218.5,71.1c-1.1,0.9-2.3,1.4-3.5,2.1c-3.2,1.9-6.4,3.7-9.6,5.6c-3.1,1.8-6.1,3.5-9.2,5.3
		c-3.2,1.8-6.4,3.7-9.6,5.5c-3.1,1.8-6.2,3.5-9.3,5.3c-1.2,0.7-2.3,1.4-3.5,2c-0.4,0.2-0.7,0.4-1.2,0.4c-0.1-0.4,0.1-0.6,0.3-0.9
		c1.9-2.9,2.2-5.9,1.2-9.2c-0.1-0.3-0.2-0.5-0.2-0.8c0-0.7,0.5-1,1-1.3c4.4-2.5,8.7-5,13-7.5c6.8-3.9,13.5-7.8,20.3-11.7
		c0.9-0.5,1.8-1.1,2.8-1.6c0.3-0.2,0.5-0.4,0.9-0.2l0,0c0.1,0.1,0.1,0.1,0.2,0.2l0,0c0.1,0.1,0.1,0.1,0.2,0.2l0,0
		c0.1,0.1,0.1,0.1,0.2,0.2c1.4,1.2,2.5,2.6,3.7,3.9C217.1,69.4,217.9,70.2,218.5,71.1z"/>
	<path class="st23" d="M110.8,133.7c-2.2,1.3-4.4,2.6-6.7,3.8c-1.9,1.1-3.8,2.2-5.7,3.3c-1.9,1.1-3.9,2.2-5.8,3.4
		c-1.8,1.1-3.7,2.1-5.5,3.2c-2.2,1.3-4.5,2.6-6.7,3.9c-1.9,1.1-3.9,2.2-5.8,3.4c-1.9,1.1-3.7,2.1-5.6,3.2c-1.9,1.1-3.8,2.2-5.7,3.3
		c-2.2,1.3-4.4,2.6-6.7,3.8c-1.9,1.1-3.9,2.2-5.8,3.4c-1.9,1.1-3.8,2.2-5.7,3.3c-0.7,0.4-1.4,0.9-2.2,1.2c0,0,0,0,0,0
		c-0.1-0.1-0.1-0.3-0.2-0.4l0,0c-0.1-0.1-0.1-0.3-0.2-0.4c0-0.1-0.1-0.1,0-0.2c-0.1-0.1-0.1-0.3-0.1-0.4c0-0.1-0.1-0.1,0-0.2
		c-0.1-0.1-0.1-0.3-0.2-0.4c0,0-0.1-0.1,0-0.1c-0.1-0.1,0-0.3-0.2-0.4c0,0-0.1-0.1,0-0.1c-0.1-0.1,0-0.3-0.2-0.4c0,0-0.1-0.1,0-0.1
		c-0.1-0.1,0-0.3-0.2-0.4c0,0-0.1-0.1,0-0.1c-0.1-0.1,0-0.3-0.2-0.4c0,0-0.1-0.1,0-0.1c-0.1-0.1,0-0.3-0.2-0.4c0,0-0.1-0.1,0-0.2
		c0-0.6,0.6-0.7,0.9-0.9c4.2-2.5,8.5-4.9,12.7-7.3c7.3-4.2,14.5-8.4,21.8-12.6c8.7-5,17.3-10,26-15c1.1-0.7,2.2-1.4,3.4-2
		c0.3,0,0.5,0.2,0.8,0.4c1.1,0.9,2.2,1.9,3.4,2.7C110.5,133.1,110.8,133.3,110.8,133.7z"/>
	<path class="st15" d="M113.1,192.3c-1.7,1.2-3.6,2.1-5.4,3.2c-1.7,1-3.4,2-5.1,3c-1.9,1.1-3.9,2.2-5.8,3.4
		c-1.9,1.1-3.7,2.1-5.6,3.2c-1.9,1.1-3.9,2.2-5.8,3.4c-2.2,1.3-4.4,2.5-6.6,3.8c-1.5,0.9-3.1,1.8-4.6,2.6c-0.3,0.2-0.7,0.4-0.7,0.8
		c-1.6-1.2-3-2.5-4.4-3.9c-0.8-0.7-1.7-1.4-2.3-2.3c-0.1,0-0.1-0.1-0.2-0.2l0,0c-0.1,0-0.1-0.1-0.2-0.2l0,0c-0.3-0.7,0.3-0.8,0.7-1
		c2.5-1.5,5-2.9,7.5-4.3c6.8-3.9,13.6-7.9,20.4-11.8c2.3-1.3,4.6-2.6,6.9-4c0.2-0.2,0.5-0.3,0.8-0.3c1.9,0.9,3.8,1.9,5.8,2.7
		c1.2,0.4,2.5,0.8,3.7,1.3C112.6,191.8,113,191.9,113.1,192.3z"/>
	<path class="st24" d="M191.1,48.1c1.7,0.8,3.2,1.9,4.7,2.9c1,0.6,2,1.2,2.8,2c-1,0.9-2.2,1.4-3.3,2.1c-12,6.9-23.9,13.8-35.9,20.7
		c-0.7,0.4-1.3,0.8-1.9,1.3c-1.9-0.2-3.9-0.5-5.8-0.9c-0.3-0.1-0.7-0.2-1-0.1c-0.3,0-0.6,0-0.9-0.1c-0.4-0.1-0.8-0.1-1.2-0.1
		c-0.4,0-0.7,0-1.1-0.1c-0.5-0.2-1-0.1-1.6-0.1c-0.4,0-0.8,0-1.2-0.1c-0.6-0.7,0.2-0.9,0.5-1.1c1.7-1,3.4-2,5.2-3
		c8.2-4.7,16.4-9.5,24.6-14.2c5.1-3,10.3-5.9,15.4-8.9C190.6,48.2,190.8,48,191.1,48.1z"/>
	<path class="st25" d="M157.7,76.9c0-0.4,0.3-0.6,0.7-0.8c3.1-1.8,6.2-3.6,9.3-5.4c3.4-2,6.8-4,10.2-6c2.8-1.6,5.6-3.2,8.4-4.8
		c2.2-1.2,4.3-2.5,6.5-3.8c1.8-1,3.6-2.1,5.3-3.1c0.2-0.1,0.4-0.1,0.5-0.2c1.4,0.8,2.7,1.9,4,2.9c1.1,0.8,2.2,1.6,3.1,2.6
		c-0.9,1-2.1,1.4-3.1,2c-8.1,4.7-16.1,9.3-24.2,14c-2.8,1.6-5.6,3.2-8.4,4.8c-0.7,0.4-1.3,0.8-1.9,1.2c-0.2,0-0.3,0-0.5-0.1
		c-1.9-1-4-1.5-6-2.3c-0.2-0.1-0.3-0.1-0.5-0.2c-0.1,0-0.2-0.1-0.2-0.1c-0.1-0.1-0.3-0.1-0.4-0.1c-0.1,0-0.2,0-0.3-0.1
		c-0.1,0-0.3-0.1-0.4-0.1c-0.1,0-0.2,0-0.3-0.1c-0.2,0-0.3-0.1-0.5-0.1c-0.1,0-0.2,0-0.4-0.1c-0.2-0.1-0.4-0.1-0.6-0.1
		C157.8,77.1,157.7,77,157.7,76.9z"/>
	<path class="st26" d="M191.1,48.1c-2.2,1.4-4.5,2.6-6.7,3.9c-1.9,1.1-3.8,2.2-5.7,3.3c-1.8,1.1-3.7,2.1-5.5,3.2
		c-1.8,1-3.6,2.1-5.4,3.1c-1.9,1.1-3.8,2.2-5.7,3.3c-1.9,1.1-3.9,2.2-5.8,3.4c-1.9,1.1-3.8,2.2-5.7,3.3c-1.8,1.1-3.7,2.1-5.5,3.2
		c-0.3,0.1-0.6,0.3-0.6,0.7c-0.5,0.5-1.1,0.3-1.7,0.2c-1.1-0.2-2.2-0.2-3.4,0c-0.9,0.1-1.7,0.1-2.6,0.1c-0.5,0-1.1-0.1-1.6,0.1
		c-0.3,0.1-0.6,0.1-0.9,0.1c-0.3,0-0.7,0-1,0.1c-0.2,0.1-0.5,0.1-0.7,0.1c-0.3,0-0.6,0-0.9,0.1c-0.2,0-0.4,0-0.5-0.2
		c-0.4-0.1-0.3-0.3-0.1-0.4c0.6-0.4,1.3-0.8,2-1.2c2.8-1.6,5.6-3.3,8.4-4.9c2.4-1.4,4.7-2.7,7.1-4c2.2-1.3,4.4-2.6,6.6-3.8
		c1.9-1.1,3.8-2.2,5.7-3.2c1.9-1.1,3.7-2.1,5.6-3.2c1.9-1.1,3.8-2.2,5.7-3.3c2.2-1.3,4.4-2.6,6.7-3.8c1.5-0.9,3-1.8,4.6-2.6
		c0.4-0.2,0.7-0.7,1.2-0.7C186.8,45.7,189,46.8,191.1,48.1z"/>
	<path class="st16" d="M168.1,80.3c0.2-0.6,0.8-0.8,1.2-1c2.3-1.4,4.7-2.7,7-4c1.9-1.1,3.8-2.2,5.7-3.3c2.2-1.3,4.5-2.6,6.8-3.9
		c2.3-1.3,4.7-2.7,7-4.1c2.2-1.3,4.5-2.6,6.8-3.9c1.1-0.6,2.1-1.3,3.3-1.8c1.4,1,2.6,2.2,3.8,3.3c0.9,0.8,1.8,1.5,2.5,2.5
		c-2.4,1.4-4.8,2.8-7.1,4.1c-1.9,1.1-3.8,2.2-5.8,3.3c-2.2,1.3-4.4,2.6-6.6,3.8c-1.9,1.1-3.7,2.1-5.6,3.2c-1.9,1.1-3.8,2.2-5.7,3.2
		c-2,1.1-3.9,2.3-5.9,3.4c-0.5,0.3-1.1,0.4-1.2,1.1c-0.2,0.1-0.4-0.1-0.5-0.3c-0.9-1.9-2.5-3.1-4-4.4c-0.1-0.1-0.2-0.2-0.3-0.3
		c-0.1,0-0.1-0.1-0.2-0.1c-0.1,0-0.1-0.1-0.2-0.1c0,0-0.1,0-0.1-0.1c-0.1,0-0.1-0.1-0.2-0.1c-0.1,0-0.1-0.1-0.2-0.1
		c-0.1,0-0.1-0.1-0.2-0.1c-0.1,0-0.1-0.1-0.2-0.1c-0.1,0-0.2-0.1-0.2-0.2C168.1,80.5,168.1,80.4,168.1,80.3z"/>
	<path class="st18" d="M56.7,197.9c1.9-1.1,3.7-2.2,5.6-3.2c1.9-1.1,3.8-2.2,5.7-3.3c1.9-1.1,3.7-2.1,5.6-3.2
		c2.2-1.3,4.5-2.6,6.7-3.9c1.9-1.1,3.8-2.2,5.7-3.3c1.9-1.1,3.8-2.2,5.7-3.3c1.5-0.9,3.1-1.8,4.6-2.6c0.3-0.2,0.6-0.5,0.9,0
		c0.1,0.1,0.1,0.3,0.1,0.4c-0.1,0.2,0,0.5,0,0.7c-0.1,2.3,0.2,4.5,1,6.6c0,0.2-0.2,0.3-0.4,0.4c-10.1,5.7-20,11.5-30,17.3
		c-1.8,1.1-3.7,2.1-5.5,3.2c-0.3,0.2-0.5,0.4-0.9,0.3c-1.2-1.1-2.1-2.4-3.1-3.6C57.9,199.5,57.2,198.8,56.7,197.9z"/>
	<path class="st23" d="M106.1,130c-1,0.8-2.2,1.4-3.4,2.1c-2,1.2-3.9,2.3-5.9,3.4c-1.9,1.1-3.8,2.2-5.7,3.2
		c-2.2,1.3-4.4,2.5-6.6,3.8c-1.9,1.1-3.8,2.2-5.7,3.3c-1.9,1.1-3.8,2.2-5.7,3.2c-2,1.1-3.9,2.3-5.9,3.4c-2.2,1.3-4.3,2.5-6.5,3.8
		c-1.9,1.1-3.8,2.2-5.7,3.3c-1.9,1.1-3.9,2.2-5.8,3.4c-1.9,1.1-3.8,2.2-5.7,3.3c-0.9,0.5-1.7,0.9-2.5,1.6c-0.5-1.3-0.9-2.6-1.1-3.9
		c0.1-0.3,0.4-0.4,0.7-0.5c2.6-1.4,5.1-2.9,7.7-4.4c1.9-1.1,3.8-2.2,5.8-3.3c1.7-1,3.4-2,5.1-3c1.9-1.1,3.9-2.2,5.8-3.4
		c1.9-1.1,3.7-2.1,5.6-3.2c1.9-1.1,3.8-2.2,5.7-3.3c2.2-1.3,4.4-2.6,6.7-3.8c1.9-1.1,3.9-2.2,5.8-3.4c1.9-1.1,3.7-2.1,5.6-3.2
		c1.9-1.1,3.8-2.2,5.7-3.3c1.1-0.6,2.1-1.3,3.2-1.9c0.1,0,0.1,0,0.2,0.1c0.1,0.1,0.1,0.1,0.1,0.2c0,0,0,0.1,0.1,0.1
		c0.1,0,0.1,0.1,0.2,0.1c0,0,0.1,0,0.1,0.1c0.1,0,0.1,0.1,0.2,0.1c0.6,0.4,1.1,1,1.6,1.5C106,129.5,106.3,129.7,106.1,130z"/>
	<path class="st20" d="M61.5,203.9c1.4-1,2.9-1.8,4.3-2.6c2.2-1.3,4.5-2.6,6.7-3.9c1.9-1.1,3.8-2.2,5.7-3.3c1.9-1.1,3.8-2.2,5.7-3.2
		c2-1.1,3.9-2.3,5.9-3.4c2.2-1.3,4.4-2.5,6.6-3.8c0.6-0.3,1.1-0.7,1.7-0.8c0.3,0,0.4,0.2,0.5,0.4c0.8,1.6,2.1,2.7,3.4,3.8
		c0.2,0.2,0.6,0.4,0.6,0.8c-1.2,0.5-2.2,1.3-3.3,1.9c-1.9,1.1-3.8,2.2-5.7,3.3c-1.9,1.1-3.8,2.2-5.7,3.3c-1.9,1.1-3.8,2.2-5.7,3.3
		c-2.2,1.3-4.4,2.6-6.7,3.8c-1.9,1.1-3.9,2.2-5.8,3.4c-0.9,0.5-1.8,1-2.7,1.6c-0.3,0.2-0.6,0.3-0.6,0.7c-1.4-1.2-2.6-2.7-3.9-4
		C62.2,204.7,61.8,204.4,61.5,203.9z"/>
	<path class="st24" d="M96.9,111.6c-0.4,0-0.7,0.2-1.1,0.4c-2.3,1.3-4.5,2.6-6.8,4c-1.9,1.1-3.8,2.2-5.6,3.3
		c-1.9,1.1-3.8,2.2-5.8,3.3c-2.2,1.2-4.3,2.5-6.5,3.8c-1.9,1.1-3.8,2.2-5.7,3.3c-1.9,1.1-3.9,2.2-5.8,3.4c-1.8,1.1-3.7,2.1-5.5,3.2
		c-1.8,1.1-3.7,2.1-5.5,3.2c-1.9,1.1-3.8,2.2-5.7,3.3c-1.4,0.8-2.9,1.7-4.3,2.5c-0.5,0.3-1,0.6-1.6,0.8c-0.2-0.1-0.1-0.3-0.2-0.4
		c0-0.4,0-0.7,0-1.1c-0.2-0.5,0-1.1-0.1-1.6c-0.1-0.5-0.1-0.9,0-1.4c0.4-0.5,1-0.7,1.5-1c7.6-4.4,15.1-8.8,22.7-13.1
		c9.9-5.7,19.8-11.4,29.7-17.1c1.7-1,3.3-2,5-2.9c1.1-0.6,1.3-0.4,1.3,0.8c0,0.8-0.1,1.5,0.1,2.3C97.1,110.9,97.2,111.3,96.9,111.6z
		"/>
	<path class="st27" d="M96.8,110.3c-0.3-0.5-0.1-1-0.1-1.5c0-0.5,0-1.1,0-1.7c-1.2,0.4-2.1,1-3.1,1.6c-1.9,1.1-3.8,2.2-5.7,3.3
		c-1.8,1-3.6,2.1-5.4,3.1c-1.9,1.1-3.8,2.2-5.7,3.3c-1.9,1.1-3.9,2.2-5.8,3.4c-1.8,1.1-3.7,2.1-5.5,3.2c-2.3,1.3-4.5,2.6-6.8,3.9
		c-1.9,1.1-3.8,2.2-5.7,3.3c-1.9,1.1-3.8,2.2-5.7,3.3c-1.9,1.1-3.7,2.2-5.6,3.2c-1.4,0.8-2.8,1.6-4.3,2.4c-0.3,0.2-0.6,0.3-0.9,0.4
		c0-0.2,0-0.4,0-0.6c0-1,0-2.1,0-3.1c0-0.5,0.1-0.8,0.6-1c3.5-1.9,7-4,10.4-6c3.6-2.1,7.2-4.1,10.8-6.2c2.6-1.5,5.3-3.1,7.9-4.6
		c2.4-1.4,4.7-2.7,7.1-4c2.2-1.3,4.4-2.6,6.6-3.8c1.9-1.1,3.8-2.2,5.8-3.3c2.6-1.5,5.3-3.1,7.9-4.6c1-0.6,1.9-1.1,2.9-1.7
		c0.3-0.2,0.6-0.2,0.6,0.2c0.2,0.2,0.2,0.4,0.1,0.6c-0.1,0.4-0.1,0.8,0,1.1c0,1.5,0,3,0,4.5C97.2,109.5,97.2,110,96.8,110.3z"/>
	<path class="st28" d="M179.1,247.4c-2.6-0.1-5.1-0.6-7.7-1c-2.6-0.5-5.2-1.2-7.7-2.1c-0.1,0-0.2-0.1-0.3-0.2
		c0.2-0.2,0.4-0.3,0.7-0.3c4-0.9,7.9-2.1,11.8-3.5c6-2.1,11.7-4.6,17.2-7.8c0.7-0.4,1.4-0.8,2.1-1.2c0.1-0.1,0.2-0.1,0.4-0.2
		c0.2-0.1,0.3-0.2,0.5-0.3c0.7-0.4,1.3-0.8,2-1.2c0.3-0.2,0.6-0.5,1-0.3c1,1.8,2,3.5,3,5.3c0.2,0.4,0.4,0.7,0.4,1.2
		c0,0.2-0.2,0.3-0.3,0.4c-0.1,0.1-0.2,0.1-0.3,0.2c-0.1,0.1-0.2,0.2-0.4,0.2c-0.1,0.1-0.2,0.1-0.3,0.2c-0.1,0-0.1,0.1-0.2,0.1
		c-0.1,0.1-0.2,0.1-0.3,0.2c-0.1,0.1-0.2,0.1-0.3,0.2c-0.1,0.1-0.2,0.1-0.3,0.2c-0.1,0-0.1,0.1-0.2,0.1c-0.1,0.1-0.2,0.2-0.3,0.2
		c-3,1.9-6.2,3.6-9.4,5.1c-3,1.4-6,2.7-9.1,3.9C180.5,247.1,179.8,247.4,179.1,247.4z"/>
	<path class="st29" d="M55.6,37.7c1.8-1.5,3.8-2.7,5.7-3.8c5.8-3.4,11.9-5.8,18.5-7.3c2.8-0.6,5.6-1.1,8.4-1.3
		c2.4-0.2,4.9-0.4,7.3-0.3c2,0.1,4,0.3,5.9,0.4c0.1,0,0.2,0.1,0.2,0.1c0,0.6-0.5,0.6-0.9,0.7c-5.1,1.8-10,3.9-14.8,6.3
		c-1,0.5-1.9,1.1-3,1.4c-7.5,1.5-15,2.4-22.5,3.7c-1.2,0.2-2.3,0.4-3.5,0.5C56.5,38.2,55.9,38.3,55.6,37.7z"/>
	<path class="st30" d="M83.2,33.7c2.6-1.3,5.2-2.6,7.8-3.8c2.2-1,4.4-1.9,6.6-2.7c1.4-0.5,2.9-0.9,4.2-1.6c1.6,0,3.2,0.3,4.7,0.6
		c3.5,0.7,7,1.6,10.3,2.9c0.1,0,0.2,0.1,0.2,0.1c-0.2,0.3-0.4,0.3-0.7,0.3c-6.2,1.3-12.3,3.2-18.2,5.6c-0.4,0.1-0.7,0.3-1.1,0.3
		c-0.3,0-0.6-0.1-1,0c-6.2,1-12.4,2-18.6,3c-0.4,0.1-0.8,0.1-1.2,0c-0.5-0.4-0.1-0.6,0.2-0.8C78.6,36.1,80.7,34.7,83.2,33.7z"/>
	<path class="st31" d="M83.2,33.7c-1.2,0.9-2.6,1.5-3.9,2.3c-1.1,0.7-2.3,1.3-3.3,2.1c-1,1-2.2,1.6-3.3,2.4
		c-0.9,0.7-1.9,1.3-2.7,1.9c-0.3,0.2-0.6,0.3-0.9,0.3c-4.9,0.9-9.8,1.6-14.7,2.4c-2.1,0.3-4.2,0.7-6.4,1c-0.5,0.1-1.1,0.2-1.5-0.4
		c0.8-1.1,1.9-2,2.9-3c1.8-1.8,3.8-3.4,5.8-4.9c0.1-0.1,0.3-0.2,0.4-0.2C56,38,56.5,38,57,37.9c2.6-0.4,5.3-0.9,7.9-1.3
		c2.7-0.4,5.4-0.8,8.1-1.2c2.5-0.4,5.1-0.9,7.6-1.3C81.5,34,82.3,33.7,83.2,33.7z"/>
	<path class="st32" d="M151.9,238.8c0.7-0.5,1.7-0.3,2.5-0.5c0.5-0.2,1.1-0.2,1.6-0.2c0.4-0.3,0.9-0.4,1.3-0.5
		c10.4-1.8,20.3-5.1,29.7-10c2.5-1.3,4.8-2.7,7.2-4.1c0.4-0.2,0.7-0.5,1.1-0.6c0.1,0,0.2-0.1,0.3-0.1c0,0,0.1,0,0.1-0.1
		c0.1,0,0.2-0.1,0.3-0.1c0.1,0,0.2,0,0.3,0.1c0.8,0.9,1.4,1.9,1.7,3.1c-0.7,0.9-1.8,1.2-2.6,1.9c-0.1,0.1-0.2,0.1-0.2,0.2
		c-0.1,0.1-0.2,0.1-0.3,0.1c-7.9,4.8-16.2,8.5-25.1,11.1c-3.4,1-6.8,1.9-10.2,2.5c-0.7,0.1-1.5,0.4-2.3,0.1
		C155.3,240.9,153.6,239.9,151.9,238.8z"/>
	<path class="st33" d="M128.4,34.8c-2.5,0.2-5,0.6-7.4,1c-2.8,0.5-5.7,1.1-8.4,1.9c-4.4,1.2-8.8,2.7-13,4.5
		c-2.7,1.1-5.3,2.4-7.9,3.7c-0.8,0.4-1.5,1-2.3,1.2c-0.6-0.2-1.3-0.1-1.9,0c-1.7,0.3-3.3,0.4-5,0.9c-0.3,0.1-0.6,0.1-0.9,0
		c-0.4-0.4,0-0.6,0.2-0.8c0.4-0.3,0.8-0.6,1.3-0.9c5.6-3.5,11.5-6.4,17.6-8.8c0.2-0.1,0.4-0.2,0.5-0.2c6.6-2.6,13.5-4.4,20.4-5.6
		c0.4-0.1,0.8,0,1.1,0C124.7,32.5,126.6,33.6,128.4,34.8z"/>
	<path class="st34" d="M227,232.1c-2.7,2.4-5.6,4.5-8.7,6.3c-0.5,0.3-1,0.7-1.5,0.8c-0.4-0.1-0.5-0.5-0.7-0.8
		c-1.5-2.6-3-5.2-4.5-7.7c-0.2-0.4-0.4-0.7-0.2-1.2c0.8-1,2-1.7,3-2.6c2-1.6,3.9-3.2,5.6-5c0.3-0.3,0.5-0.8,1.1-0.6
		c1.2,1.8,2.1,3.7,3.2,5.5c0.9,1.4,1.6,2.8,2.4,4.3C226.9,231.4,227.3,231.7,227,232.1z"/>
	<path class="st35" d="M157.2,241.6c1.4-0.1,2.7-0.4,4.1-0.7c1.9-0.4,3.8-0.9,5.7-1.4c3.6-1,7.1-2.1,10.6-3.4
		c4-1.5,7.8-3.3,11.6-5.2c1.8-0.9,3.5-2,5.3-3c0.2-0.1,0.3-0.2,0.5-0.2c0.5,0.7,0.9,1.5,1.3,2.3c0.2,0.4,0.2,0.8-0.2,1.2
		c-0.1,0.1-0.3,0.1-0.4,0.2c-0.1,0.1-0.1,0.1-0.2,0.2c-2.6,1.5-5.1,2.9-7.8,4.2c-3.2,1.5-6.4,2.9-9.6,4.1c-2.2,0.8-4.4,1.5-6.6,2.2
		c-2.4,0.7-4.8,1.3-7.2,2c-0.3,0.1-0.6,0-0.9,0.1C161.3,243.5,159.2,242.7,157.2,241.6z"/>
	<path class="st36" d="M200.3,237.1c0.1-0.1,0.3-0.1,0.4-0.2c0.1-0.1,0.1-0.1,0.2-0.2c0.1,0,0.1,0,0.2,0c0.1-0.1,0.1-0.1,0.2-0.2
		c0.1-0.1,0.3-0.1,0.4-0.2c0.1-0.1,0.2-0.1,0.3,0c1.4,2.3,2.7,4.7,4,7c0.1,0.2,0.3,0.4,0.1,0.7l-0.1,0l-0.1,0
		c-0.1,0.1-0.3,0.1-0.4,0.1c-0.1,0-0.1,0-0.2,0c-0.1,0.1-0.3,0.1-0.4,0.1c-0.1,0-0.1,0-0.2,0c-0.1,0.1-0.3,0.1-0.4,0.1
		c-0.1,0-0.1,0-0.2,0c-0.1,0.1-0.3,0.1-0.4,0.1c-0.1,0-0.2,0-0.4,0.1c-0.1,0.1-0.3,0.1-0.4,0.2c-2,0.7-4.1,1.1-6.1,1.5
		c-3.1,0.6-6.2,0.9-9.3,1.1c-1.4,0.1-2.9,0.2-4.3,0.1c-1.4-0.1-2.8,0-4.2-0.3c1.1-0.6,2.2-0.9,3.4-1.4c2.2-0.9,4.4-1.8,6.5-2.8
		c1.1-0.5,2.1-1,3.2-1.5c2.6-1.3,5.1-2.7,7.6-4.2c0.1-0.1,0.1-0.1,0.2-0.2c0.1,0,0.1,0,0.2,0C200.2,237.3,200.3,237.2,200.3,237.1z"
		/>
	<path class="st37" d="M46.5,45.8c0.5,0.2,1,0.1,1.6,0c2.2-0.4,4.4-0.7,6.6-1c1.8-0.3,3.6-0.6,5.5-0.9c2.2-0.4,4.5-0.7,6.7-1
		c0.8-0.1,1.5-0.4,2.4-0.4c0.1,0.6-0.5,0.8-0.8,1.1c-2.2,1.6-4.2,3.2-6.2,5c-0.4,0.2-0.7,0.6-1.1,0.8c-0.2,0.1-0.4,0.2-0.6,0.4
		c0,0.1-0.1,0.1-0.2,0.2c-0.1,0.1-0.1,0.1-0.2,0.2c0,0-0.1,0-0.1,0.1c-0.1,0-0.2,0.1-0.3,0.1c-0.1,0-0.1,0-0.2,0
		c-3.5,0.4-6.9,1-10.4,1.6c-2.4,0.4-4.8,0.8-7.1,1.1c-0.5,0.1-1,0.3-1.3-0.3c1-1.7,2.3-3.2,3.6-4.8C45.1,47.2,45.7,46.4,46.5,45.8z"
		/>
	<path class="st38" d="M40.8,52.8c0.6,0.4,1.2,0,1.8,0c2-0.3,4-0.6,6-0.9c1.3-0.2,2.6-0.4,3.9-0.7c1.5-0.2,3-0.5,4.5-0.7
		c0.6-0.1,1.1-0.2,1.7-0.3c0.5-0.1,0.9-0.1,1.3,0.1c0.1,0.6-0.4,0.8-0.8,1.1c-2.1,1.9-4.1,3.9-6,6c-0.4,0.4-0.7,0.8-1.3,1
		c-4.8,0.7-9.5,1.5-14.3,2.2c-0.5,0.1-1,0.3-1.5-0.2c0.5-1.3,1.3-2.4,2-3.6C39,55.4,39.8,54.1,40.8,52.8z"/>
	<path class="st39" d="M206.1,244.1c-1.3-2.3-2.6-4.6-4-6.9c-0.1-0.3-0.3-0.5-0.3-0.8c-0.1,0-0.1-0.1-0.1-0.1c0,0,0-0.1,0.1-0.1
		c0.1-0.1,0.3-0.1,0.4-0.2c0.2-0.4,0.6-0.6,1-0.9c2.5-1.7,5-3.4,7.4-5.3c0.2-0.2,0.5-0.5,0.8-0.2c-0.2,0.3,0,0.6,0.2,0.9
		c1.5,2.6,3,5.2,4.6,7.8c0.2,0.3,0.3,0.6,0.5,0.9l0,0c-0.1,0.1-0.3,0.1-0.4,0.2l0,0c-0.1,0.1-0.3,0.1-0.4,0.2l0,0
		c-0.1,0.1-0.1,0.1-0.2,0.1c0,0.1-0.1,0.1-0.2,0.1c-0.1,0-0.2,0.1-0.2,0.1C212.4,241.6,209.4,243,206.1,244.1z"/>
	<path class="st40" d="M239.4,217.9c-0.1,0.3-0.3,0.6-0.5,0.8c-1.6,2.4-3.3,4.6-5.2,6.8c-0.1,0.1-0.2,0.2-0.4,0.3
		c-0.9-1.1-1.6-2.5-2.3-3.7c-1.2-2-2.4-4-3.5-6.1c-0.2-0.3-0.4-0.7-0.3-1.1c0-0.1,0.1-0.3,0.2-0.4c0-0.1,0.1-0.1,0.2-0.2
		c0,0,0.1-0.1,0.1-0.1c0-0.1,0.1-0.1,0.2-0.2c1.6-1.9,3.1-3.9,4.7-5.8c0.1-0.1,0.2-0.2,0.3-0.3c0.1-0.1,0.1-0.1,0.2-0.2
		c0.2-0.1,0.3-0.2,0.5,0C235.4,211.1,237.4,214.5,239.4,217.9z"/>
	<path class="st41" d="M227.4,214.8c0,0.9,0.7,1.6,1.1,2.3c1.1,2,2.3,4,3.4,6c0.3,0.5,0.6,1,0.9,1.6c0.2,0.4,0.5,0.8,0.5,1.2
		c-1.1,1.5-2.4,2.7-3.7,4c-0.9,0.8-1.7,1.7-2.7,2.3c-0.4-1-1-1.8-1.5-2.7c-1.1-2-2.3-4-3.4-6c-0.4-0.7-0.9-1.3-1.1-2.1
		c0,0,0-0.1,0-0.1c0-0.1,0.1-0.1,0.1-0.2c0,0,0-0.1,0.1-0.1c0-0.1,0.1-0.1,0.1-0.2c0,0,0-0.1,0.1-0.1c0-0.1,0.1-0.1,0.2-0.2
		c0.1-0.1,0.3-0.3,0.4-0.4c1.6-1.6,3.3-3.2,4.7-5.1c0.1-0.2,0.3-0.3,0.5-0.4C227.3,214.7,227.3,214.7,227.4,214.8z"/>
	<path class="st0" d="M36.2,60.5c1.2,0.1,2.3-0.3,3.4-0.4c2-0.2,3.9-0.6,5.9-0.9c1.7-0.3,3.5-0.5,5.2-0.9c0.5-0.1,1-0.1,1.4-0.1
		c0.1,0.6-0.4,0.9-0.7,1.3c-1.7,2-3.4,3.8-5,5.9c-0.3,0.4-0.6,0.7-1.1,0.8c-3.8,0.7-7.6,1.2-11.4,1.8c-0.3,0.1-0.6,0.1-0.9-0.2
		c0.5-1.7,1.2-3.3,1.9-4.9C35.3,62.1,35.7,61.3,36.2,60.5z"/>
	<path class="st42" d="M122.7,31.7c-0.4,0.5-1,0.3-1.4,0.4c-2.9,0.5-5.8,1.1-8.7,1.9c-3.6,0.9-7.2,2-10.7,3.4
		c-0.3,0.1-0.6,0.2-0.8,0.2c-3.6,0.7-7.2,1.2-10.8,1.8c-0.3,0.1-0.7,0.1-1-0.2c-0.2-0.5,0.1-0.7,0.4-0.8c2.2-1,4.3-2.1,6.5-3
		c0.2-0.1,0.5,0,0.7-0.1c2-0.7,3.9-1.5,5.9-2.2c2.5-0.9,5.1-1.7,7.6-2.4c1.5-0.4,3.1-0.8,4.7-1.2c0.6-0.1,1.2-0.3,1.8-0.3
		C119,29.8,120.9,30.7,122.7,31.7z"/>
	<path class="st43" d="M29.5,96.4c0-0.1,0-0.2,0-0.4c-0.2-0.8-0.1-1.6,0.2-2.4c1-2.7,2.2-5.3,3.5-7.8c0.1-0.3,0.3-0.5,0.6-0.6
		c2.6-0.3,5.3-0.8,7.9-1.2c0.3,0,0.6-0.1,0.9-0.1c0.4,0.3,0.1,0.6,0,1c-1.7,3.4-3.4,6.8-5,10.3c-0.1,0.1-0.2,0.2-0.4,0.3
		c-2.1,0.2-4.2,0.7-6.3,1C30.4,96.5,29.9,96.6,29.5,96.4z"/>
	<path class="st44" d="M239.4,217.9c-0.4-0.2-0.7-0.6-0.9-1c-1.5-2.7-3.1-5.4-4.6-8.1c-0.2-0.4-0.4-0.8-0.5-1.2
		c-0.2-0.4,0.1-0.7,0.3-0.9c1-1.3,1.9-2.7,2.8-4c0.4-0.4,0.5-1.1,1.1-1.1c1,1,1.5,2.3,2.2,3.4c1.1,1.8,2.1,3.7,3.2,5.5
		c0.1,0.2,0.2,0.3,0.1,0.5c-0.2,0.8-0.6,1.4-1,2.1C241.3,214.8,240.5,216.4,239.4,217.9z"/>
	<path class="st45" d="M243.2,211.1c-0.7-0.7-1.1-1.6-1.5-2.4c-1.4-2.3-2.7-4.7-4.1-7.1c-0.1,0-0.1-0.1-0.1-0.2
		c0-0.1,0.1-0.2,0.1-0.3c0.1-0.1,0.1-0.2,0.2-0.4c0.1-0.1,0.1-0.2,0.2-0.3c0.1-0.1,0.2-0.2,0.2-0.4c0.1-0.1,0.1-0.2,0.2-0.3
		c0.3-0.7,0.8-1.3,1.2-2c0.4-0.6,0.8-1.2,1.1-1.8c0.2-0.3,0.3-0.6,0.7-0.7c0.3,0,0.4,0.3,0.5,0.5c1.4,2.3,2.7,4.7,4.1,7
		c0.1,0.2,0.3,0.4,0.2,0.7c-0.5,1.9-1.3,3.7-2.1,5.5C243.9,209.7,243.7,210.5,243.2,211.1z"/>
	<path class="st46" d="M33,67.8c1-0.1,1.9-0.3,2.9-0.4c1.6-0.2,3.1-0.5,4.7-0.7c0.9-0.1,1.8-0.3,2.7-0.5c0.7-0.1,1.4-0.2,2.2-0.3
		c0.3,0.4-0.1,0.6-0.2,0.9c-1,1.5-2,2.9-3.1,4.4c-0.2,0.3-0.5,0.6-0.8,0.8c-1.6,0.8-3.4,0.8-5.2,1.2c-1.3,0.3-2.6,0.4-3.9,0.6
		c-0.4,0.1-0.8,0.2-1.1-0.3c0.4-1.7,0.8-3.4,1.5-5c0.1-0.1,0.1-0.3,0.2-0.4C32.9,67.9,32.9,67.9,33,67.8z"/>
	<path class="st47" d="M31.3,73.4c0.5,0.4,1.1,0,1.6,0c2.3-0.3,4.6-0.7,6.9-1.1c0.6-0.1,1.1-0.4,1.7-0.6c0.3,0.4-0.1,0.7-0.3,1
		c-0.5,0.9-1.1,1.7-1.6,2.6c-0.8,1.4-1.7,2.7-2.5,4.2c-0.2,0.3-0.4,0.6-0.7,0.8c-2,0.7-4.1,0.8-6.1,1.1c-0.2,0-0.4,0-0.5-0.2
		c-0.1-0.4,0.1-0.8,0.2-1.2c0,0,0.1-0.1,0.1-0.1c0,0,0-0.1,0-0.1C30.2,77.7,30.6,75.5,31.3,73.4z"/>
	<path class="st48" d="M29.5,96.4c0.6-0.3,1.2-0.3,1.9-0.4c1.4-0.3,2.8-0.4,4.2-0.7c0.5-0.1,1.1-0.1,1.6-0.1c0.4,0.5,0,0.9-0.1,1.4
		c-1,2.5-2,5-2.7,7.6c-0.5,1.6-0.9,3.2-1.4,4.7c-0.1,0.4-0.1,0.8-0.6,1c-0.6-1.5-1-3.1-1.4-4.7c-0.7-2.8-1.2-5.6-1.5-8.4
		C29.5,96.7,29.5,96.6,29.5,96.4z"/>
	<path class="st49" d="M38,119.7c-0.3,0.6-0.3,1.3-0.4,2c-1.1-1.7-1.9-3.4-2.7-5.2c-0.2-0.5-0.3-1-0.1-1.6c0.7-3.3,1.6-6.5,2.6-9.7
		c0.1-0.3,0.2-0.5,0.4-0.8c1-0.7,2.2-0.7,3.3-0.8c0.4,0,0.8,0.1,0.6,0.7c-0.1,0.3-0.1,0.6-0.2,1c-0.1,0.1-0.1,0.3-0.2,0.4
		c0,0.1,0,0.1,0,0.2c-0.2,0.2,0,0.4-0.2,0.6c0,0.1,0,0.1,0,0.2c-0.7,1.4-0.9,2.8-1.3,4.3c-0.6,2.3-1.1,4.6-1.5,6.9
		c0,0.2,0,0.5-0.1,0.8c-0.1,0.2,0,0.4-0.2,0.6C38,119.4,38,119.6,38,119.7z"/>
	<path class="st50" d="M246.3,203.6c-1.2-1.7-2.1-3.5-3.1-5.3c-0.6-1-1.1-1.9-1.7-2.9c-0.3-0.3,0-0.6,0.1-0.9
		c0.4-0.8,0.9-1.5,1.2-2.3c0.5-0.9,0.9-1.8,1.4-2.6c0.2-0.3,0.3-0.7,0.7-0.8c0.3,0,0.5,0.2,0.7,0.5c1,1.7,2,3.5,3.1,5.2
		c-0.3,2.3-0.9,4.5-1.5,6.7C246.9,202,246.7,202.8,246.3,203.6z"/>
	<path class="st1" d="M29.7,81.2c2.2-0.4,4.5-0.6,6.7-1.2c0.2,0.2,0.1,0.4,0,0.6c-0.9,1.5-1.6,3-2.4,4.5c-0.1,0.1-0.2,0.2-0.3,0.3
		c-1.5,2.9-2.8,5.8-4,8.9c-0.2,0.6-0.2,1.2-0.2,1.8c-0.3-0.3-0.1-0.7-0.2-1.1c-0.3-2.6-0.2-5.3-0.2-7.9
		C29.2,85.1,29.3,83.1,29.7,81.2z"/>
	<path class="st51" d="M37.8,104.5c-0.8,2.9-1.7,5.8-2.4,8.8c-0.2,1.1-0.6,2.1-0.5,3.2c-0.8-1.4-1.3-2.9-1.9-4.5
		c-0.3-0.7-0.6-1.3-0.7-2.1c0.4-1.3,0.8-2.7,1.2-4c0.2-0.6,0.4-1.2,0.6-1.8c1.3-0.3,2.5-0.7,3.9-0.4C38.2,104,38.1,104.3,37.8,104.5
		z"/>
	<path class="st30" d="M246.5,162.8c0.8,2.1,1.3,4.2,1.8,6.4c0.7,3.1,1.1,6.2,1.3,9.3c-0.1,0.1-0.2,0.1-0.3,0
		c-1.5-2.4-2.8-4.9-4.3-7.3c-0.2-0.4-0.5-0.8-0.5-1.2c0.1-0.9,0.4-1.7,0.6-2.5c0.4-1.2,0.7-2.4,1-3.6
		C246.2,163.4,246.2,163,246.5,162.8z"/>
	<path class="st52" d="M248.6,194.5c-0.5-0.2-0.7-0.7-1-1.1c-0.8-1.4-1.6-2.8-2.4-4.2c-0.1-0.1-0.2-0.2-0.3-0.3
		c-0.2-0.6,0.2-1,0.4-1.5c0.3-0.8,0.7-1.5,1-2.3c0.1-0.3,0.3-0.7,0.7-0.8c0.4,0,0.6,0.3,0.7,0.5c0.5,0.8,1,1.6,1.4,2.5
		c0.3,0.5,0.3,1,0.1,1.6C249.4,190.8,249.1,192.7,248.6,194.5z"/>
	<path class="st53" d="M246.5,162.8c-0.2,1.6-0.6,3.2-1.2,4.7c-1.1-1.3-1.7-2.8-2.6-4.2c0-0.1,0-0.2,0-0.3c0-0.2,0.1-0.4,0.1-0.6
		c0.1-0.8,0.3-1.5,0.5-2.2c0.2-0.8,0.3-1.7,0.5-2.5c0.1-0.4,0.1-0.8,0.5-1c0.7,1.3,1.2,2.7,1.7,4.1
		C246.1,161.5,246.4,162.1,246.5,162.8z"/>
	<path class="st54" d="M244.2,156.8c-0.3,1.2-0.4,2.4-0.8,3.5c-0.6,0.1-0.7-0.4-0.9-0.8c-0.7-1-1-2.1-2-2.9c0.2-1.3,0.5-2.6,0.7-4
		c0-0.2,0-0.4,0.1-0.7c0-0.3,0.1-0.5,0.2-0.8C242.5,153,243.5,154.8,244.2,156.8z"/>
	<path class="st55" d="M249.4,188.9c0.1-0.7-0.2-1.3-0.6-1.9c-0.4-0.6-0.8-1.3-1.1-1.9c-0.2-0.3-0.3-0.5-0.6-0.7
		c-0.3-0.5,0.1-0.8,0.2-1.2c0.5-1.3,1-2.6,1.6-3.9c0.1-0.3,0.2-0.7,0.5-0.9c0.1,0,0.1,0,0.2,0c0.3,2.3,0.2,4.6,0.1,6.9
		C249.6,186.5,249.7,187.7,249.4,188.9z"/>
	<path class="st27" d="M36.7,142.8c0.3,0.5,0.1,1.1,0.1,1.6C36.5,143.8,36.7,143.3,36.7,142.8z"/>
	<path class="st14" d="M242.2,130.8c-0.3-0.5-0.1-1-0.1-1.6C242.3,129.7,242.1,130.2,242.2,130.8z"/>
	<path class="st27" d="M36.8,145.5c0.1,0.1,0.2,0.2,0.2,0.4c0,0.3,0,0.6,0,0.8C36.7,146.3,36.9,145.9,36.8,145.5z"/>
	<path class="st7" d="M129.1,238.9c0.4,0,0.8-0.2,1.2,0.2C129.9,239,129.4,239.2,129.1,238.9z"/>
	<path class="st7" d="M127.3,238.7c0.3,0,0.7-0.1,1,0.2C128,238.8,127.6,239,127.3,238.7z"/>
	<path class="st7" d="M124.3,238.3c0.3,0,0.5-0.1,0.8,0.1C124.8,238.4,124.5,238.5,124.3,238.3z"/>
	<path class="st7" d="M125.8,238.5c0.3,0,0.6-0.1,0.8,0.1C126.3,238.6,126,238.7,125.8,238.5z"/>
	<path class="st15" d="M241,120.3c-0.2-0.2-0.1-0.5-0.1-0.8C241.1,119.8,241,120.1,241,120.3z"/>
	<path class="st34" d="M216,239.7c0.1-0.2,0.2-0.2,0.4-0.2C216.3,239.6,216.1,239.7,216,239.7z"/>
	<path class="st39" d="M205.6,244.2c0.1-0.1,0.2-0.1,0.4-0.1C205.8,244.2,205.7,244.3,205.6,244.2z"/>
	<path class="st39" d="M205,244.4c0.1-0.1,0.2-0.1,0.4-0.1C205.3,244.4,205.1,244.5,205,244.4z"/>
	<path class="st39" d="M204.4,244.6c0.1-0.1,0.2-0.1,0.4-0.1C204.7,244.6,204.6,244.7,204.4,244.6z"/>
	<path class="st39" d="M203.8,244.8c0.1-0.1,0.2-0.1,0.4-0.1C204.1,244.8,204,244.8,203.8,244.8z"/>
	<path class="st20" d="M238.9,110.3c-0.1-0.1-0.1-0.3-0.1-0.4C238.9,110,238.9,110.1,238.9,110.3z"/>
	<path class="st23" d="M41.3,167.8c0.2,0.1,0.2,0.3,0.2,0.4C41.3,168.2,41.3,168,41.3,167.8z"/>
	<path class="st23" d="M41.5,168.4c0.2,0.1,0.2,0.3,0.2,0.4C41.5,168.8,41.4,168.6,41.5,168.4z"/>
	<path class="st23" d="M41.7,169c0.2,0.1,0.2,0.3,0.2,0.4C41.7,169.3,41.6,169.2,41.7,169z"/>
	<path class="st23" d="M41.9,169.6c0.2,0.1,0.2,0.3,0.2,0.4C41.9,169.9,41.8,169.8,41.9,169.6z"/>
	<path class="st23" d="M42,170.2c0.2,0.1,0.2,0.3,0.2,0.4C42.1,170.5,42,170.3,42,170.2z"/>
	<path class="st23" d="M42.2,170.7c0.1,0.1,0.2,0.2,0.2,0.4C42.3,171,42.2,170.9,42.2,170.7z"/>
	<path class="st23" d="M42.5,171.3c0.1,0.1,0.2,0.2,0.1,0.4C42.5,171.6,42.4,171.5,42.5,171.3z"/>
	<path class="st23" d="M42.7,171.9c0.1,0.1,0.2,0.2,0.2,0.4C42.7,172.2,42.6,172.1,42.7,171.9z"/>
	<path class="st23" d="M42.8,172.3c0.2,0.1,0.2,0.2,0.2,0.4C42.8,172.6,42.8,172.4,42.8,172.3z"/>
	<path class="st39" d="M203,245c0.1-0.1,0.3-0.2,0.4-0.2C203.4,245,203.2,245.1,203,245z"/>
	<path class="st14" d="M81.2,221.5c0.2,0,0.3,0.1,0.4,0.2C81.4,221.7,81.3,221.7,81.2,221.5z"/>
	<path class="st3" d="M102.2,232.5c0.2,0,0.3,0,0.4,0.2C102.5,232.7,102.3,232.7,102.2,232.5z"/>
	<path class="st34" d="M216.4,239.5c0.1-0.1,0.2-0.2,0.4-0.2C216.6,239.4,216.5,239.5,216.4,239.5z"/>
	<path class="st9" d="M234.5,97.4c0-0.1-0.1-0.2-0.1-0.3C234.4,97.2,234.5,97.3,234.5,97.4z"/>
	<path class="st9" d="M234.2,96.8c0-0.1-0.1-0.1-0.1-0.2C234.2,96.6,234.3,96.7,234.2,96.8z"/>
	<path class="st9" d="M234.1,96.4c0-0.1-0.1-0.2-0.1-0.2C234,96.2,234.1,96.3,234.1,96.4z"/>
	<path class="st9" d="M233.9,96c0-0.1-0.1-0.2-0.1-0.2C233.9,95.8,233.9,95.9,233.9,96z"/>
	<path class="st16" d="M212.7,64.8c-0.1-0.1-0.1-0.1-0.2-0.2C212.6,64.6,212.7,64.7,212.7,64.8z"/>
	<path class="st20" d="M66.4,209.2c0.1,0.1,0.1,0.1,0.2,0.2C66.5,209.3,66.4,209.3,66.4,209.2z"/>
	<path class="st20" d="M66.6,209.3c0.1,0.1,0.1,0.1,0.2,0.2C66.6,209.5,66.6,209.4,66.6,209.3z"/>
	<path class="st15" d="M73.6,215.7c0.1,0,0.2,0.1,0.2,0.2C73.8,215.9,73.7,215.8,73.6,215.7z"/>
	<path class="st15" d="M73.9,215.9c0.1,0.1,0.1,0.1,0.2,0.2C74,216.1,73.9,216,73.9,215.9z"/>
	<path class="st15" d="M74.1,216.1c0.1,0.1,0.1,0.1,0.2,0.2C74.2,216.2,74.1,216.2,74.1,216.1z"/>
	<path class="st22" d="M218.8,71.5c0-0.1-0.1-0.1-0.1-0.2C218.8,71.4,218.8,71.4,218.8,71.5z"/>
	<path class="st22" d="M218.7,71.3c-0.1-0.1-0.1-0.1-0.2-0.2C218.6,71.2,218.6,71.2,218.7,71.3z"/>
	<path class="st16" d="M212.5,64.6c-0.1-0.1-0.1-0.1-0.2-0.2C212.4,64.4,212.5,64.5,212.5,64.6z"/>
	<path class="st19" d="M90.9,227.3c0.1,0,0.1,0.1,0.2,0.1C91,227.5,90.9,227.4,90.9,227.3z"/>
	<path class="st19" d="M91.2,227.5c0.1,0,0.2,0.1,0.2,0.1C91.3,227.7,91.3,227.6,91.2,227.5z"/>
	<path class="st19" d="M91.6,227.7c0.1,0,0.2,0.1,0.2,0.1C91.7,227.9,91.6,227.8,91.6,227.7z"/>
	<path class="st16" d="M212.3,64.4c-0.1-0.1-0.1-0.1-0.2-0.2C212.2,64.2,212.3,64.3,212.3,64.4z"/>
	<path class="st19" d="M92,227.9c0.1,0,0.2,0.1,0.2,0.1C92.1,228,92,228,92,227.9z"/>
	<path class="st19" d="M92.4,228.1c0.1,0,0.2,0.1,0.2,0.1C92.5,228.2,92.4,228.2,92.4,228.1z"/>
	<path class="st19" d="M92.8,228.3c0.1,0,0.2,0.1,0.2,0.1C92.9,228.4,92.8,228.4,92.8,228.3z"/>
	<path class="st19" d="M93.1,228.5c0.1,0,0.2,0.1,0.2,0.1C93.3,228.6,93.2,228.6,93.1,228.5z"/>
	<path class="st19" d="M93.5,228.7c0.1,0,0.2,0.1,0.2,0.1C93.7,228.8,93.6,228.8,93.5,228.7z"/>
	<path class="st19" d="M93.9,228.9c0.1,0,0.2,0.1,0.2,0.1C94,229,94,229,93.9,228.9z"/>
	<path class="st34" d="M215.8,239.8c0.1,0,0.1-0.1,0.2-0.1C215.9,239.7,215.9,239.8,215.8,239.8z"/>
	<path class="st34" d="M215.4,240c0.1,0,0.2-0.1,0.2-0.1C215.6,240,215.5,240,215.4,240z"/>
	<path class="st56" d="M59,72.6c-1.5,1.7-2.8,3.6-4.1,5.4c-1.8,2.6-3.5,5.3-5.1,8.1c-0.4,0.7-0.8,1.4-1.3,2.1
		c-1.3,0-2.6,0.6-3.9,0.3c-0.4-0.4-0.2-0.8,0-1.1c0.5-1.1,1.1-2,1.6-3.1c2.2-3.8,4.7-7.5,7.3-11c0.4-0.5,0.7-1.1,1.4-1.3
		c1.2-0.3,2.4-0.4,3.6-0.6c0.4-0.1,0.9-0.2,1.1,0.4l0,0c-0.1,0.1-0.1,0.1-0.2,0.2l0,0c-0.1,0.1-0.1,0.1-0.2,0.2l0,0
		C59.1,72.4,59.1,72.6,59,72.6z"/>
	<path class="st57" d="M81.4,47.8c0.6,0,1.1-0.2,1.6-0.3c1.8-0.4,3.7-0.7,5.5-0.9c0.3,0,0.7-0.1,0.8,0.4c0,0,0,0,0,0
		c-0.1,0.1-0.1,0.1-0.2,0.2c-0.1,0-0.1,0-0.2,0c-0.1,0.1-0.2,0.1-0.2,0.2v0c-0.1,0.1-0.1,0.1-0.2,0.2c-0.1,0-0.1,0-0.2,0
		c-0.1,0.1-0.1,0.1-0.2,0.2c-0.1,0-0.1,0-0.2,0c-0.1,0.1-0.1,0.1-0.2,0.2c-0.1,0-0.1,0-0.2,0c-0.1,0.1-0.2,0.1-0.2,0.2
		c-0.1,0.1-0.1,0.1-0.2,0.2c-0.1,0-0.1,0-0.2,0c-0.1,0.1-0.1,0.1-0.2,0.2c-0.1,0-0.1,0-0.2,0c-0.1,0.1-0.1,0.1-0.2,0.2l0,0
		c-0.1,0.1-0.1,0.1-0.2,0.2c-0.1,0-0.1,0-0.2,0C86,49,85.9,49,85.9,49.1c-1.7,1.1-3.4,2.2-5.1,3.3c-2.3,1.6-4.6,3.3-6.7,5.1
		c-0.4,0.3-0.8,0.6-1.1,0.9c-1.5,0-2.9,0.4-4.3,0.6c-0.4,0.1-0.9,0.2-1.3,0c-0.5-0.7,0.2-0.9,0.5-1.2c1.6-1.4,3.2-2.8,4.9-4.1
		c2.7-2.1,5.5-4.2,8.4-6C81.2,47.6,81.3,47.6,81.4,47.8z"/>
	<path class="st58" d="M67.1,58.8c1.3,0,2.6-0.3,3.9-0.5c0.4-0.1,0.9,0,1.3-0.2c0.3-0.1,0.5,0.1,0.6,0.3c-1.4,1.2-2.7,2.4-4,3.7
		c-1,0.9-1.9,1.8-2.8,2.7c-2.1,2.3-4.3,4.5-6.2,6.9c-0.1,0.1-0.2,0.1-0.2,0.2c-0.4-0.3-0.8-0.2-1.3-0.1c-1.2,0.2-2.4,0.4-3.6,0.5
		c-0.1-0.1-0.1-0.2-0.1-0.3c0.8-1.4,2-2.6,3-3.9c2-2.5,4.2-4.6,6.5-6.9c0.4-0.4,0.7-0.7,1-1.1C65.8,59.7,66.2,58.9,67.1,58.8z"/>
	<path class="st59" d="M44.5,88.5c0.9,0.1,1.7-0.2,2.5-0.3c0.5-0.1,1-0.2,1.5,0.1c0,0,0,0,0,0c-0.1,0.1-0.1,0.3-0.2,0.4l0,0
		c-0.1,0.1-0.1,0.3-0.2,0.4l0,0c-0.1,0.1-0.1,0.1-0.2,0.2c0,0.1,0,0.1,0,0.2c-0.1,0.1-0.1,0.1-0.2,0.2c0,0.1,0,0.1,0,0.2
		c-0.1,0.1-0.1,0.1-0.2,0.2c0,0.1,0,0.1,0,0.2c-0.1,0.1-0.1,0.1-0.2,0.2c0,0.1,0,0.1,0,0.2c-0.1,0.1-0.1,0.1-0.2,0.2
		c0,0.1,0,0.1,0,0.2c-0.1,0.1-0.1,0.1-0.2,0.2c0,0.1,0,0.1,0,0.2c-0.1,0.1-0.1,0.1-0.2,0.2c-0.4,1.1-1,2.1-1.5,3.2
		c-1.3,3-2.5,6-3.5,9.1c-0.1,0.2-0.1,0.3-0.2,0.4c-0.1-0.4-0.3-0.6-0.7-0.5c-1.1,0.2-2.1,0.4-3.1,0.7c0.1-0.2,0.2-0.5,0.2-0.8
		c0-1.1,0.5-2,0.9-3c0.7-2.2,1.6-4.3,2.6-6.4c0.5-0.9,0.8-1.9,1.3-2.8c0.1-0.1,0.1-0.2,0.2-0.3c0-0.1,0.1-0.1,0.1-0.2
		c0.1-0.1,0.1-0.2,0.2-0.3c0-0.1,0.1-0.1,0.1-0.2c0-0.1,0.1-0.2,0.1-0.3c0-0.1,0.1-0.1,0.1-0.2c0-0.1,0.1-0.1,0.1-0.2
		c0-0.1,0.1-0.1,0.1-0.2c0-0.1,0.1-0.1,0.1-0.2c0-0.1,0.1-0.1,0.1-0.2c0-0.1,0.1-0.1,0.1-0.2c0-0.1,0.1-0.1,0.1-0.2
		c0-0.1,0.1-0.1,0.1-0.2c0-0.1,0.1-0.1,0.1-0.2c0-0.1,0.1-0.1,0.2-0.1C44.5,88.5,44.5,88.5,44.5,88.5z"/>
	<path class="st4" d="M41.1,106.4c0-0.2,0-0.4,0.2-0.6C41.3,106.1,41.3,106.3,41.1,106.4z"/>
	<path class="st58" d="M59,72.6c0-0.2,0-0.3,0.2-0.4C59.2,72.4,59.2,72.6,59,72.6z"/>
	<path class="st56" d="M48.4,88.7c0-0.2,0-0.3,0.2-0.4C48.6,88.5,48.5,88.6,48.4,88.7z"/>
	<path class="st56" d="M48.2,89.1c0-0.2,0.1-0.3,0.2-0.4C48.4,88.8,48.4,89,48.2,89.1z"/>
	<path class="st4" d="M41.3,105.7c0-0.2,0-0.3,0.2-0.4C41.5,105.4,41.4,105.6,41.3,105.7z"/>
	<path class="st33" d="M89.1,47.2c0.1-0.1,0.1-0.1,0.2-0.2C89.3,47.1,89.2,47.1,89.1,47.2z"/>
	<path class="st33" d="M88.8,47.4c0.1-0.1,0.1-0.1,0.2-0.2C88.9,47.3,88.8,47.3,88.8,47.4z"/>
	<path class="st33" d="M88.6,47.5c0.1-0.1,0.1-0.1,0.2-0.2C88.7,47.4,88.6,47.5,88.6,47.5z"/>
	<path class="st33" d="M88.2,47.7c0.1-0.1,0.1-0.1,0.2-0.2C88.3,47.6,88.2,47.7,88.2,47.7z"/>
	<path class="st33" d="M87.8,47.9c0.1-0.1,0.1-0.1,0.2-0.2C87.9,47.8,87.9,47.9,87.8,47.9z"/>
	<path class="st56" d="M46.9,91.6c0.1-0.1,0.1-0.1,0.2-0.2C47,91.5,46.9,91.5,46.9,91.6z"/>
	<path class="st56" d="M47.1,91.2c0.1-0.1,0.1-0.1,0.2-0.2C47.2,91.1,47.1,91.2,47.1,91.2z"/>
	<path class="st56" d="M47.3,90.8c0.1-0.1,0.1-0.1,0.2-0.2C47.4,90.7,47.3,90.8,47.3,90.8z"/>
	<path class="st56" d="M47.4,90.4c0.1-0.1,0.1-0.1,0.2-0.2C47.6,90.3,47.5,90.4,47.4,90.4z"/>
	<path class="st56" d="M47.6,90.1c0.1-0.1,0.1-0.1,0.2-0.2C47.7,89.9,47.7,90,47.6,90.1z"/>
	<path class="st56" d="M47.8,89.7c0.1-0.1,0.1-0.1,0.2-0.2C47.9,89.5,47.9,89.6,47.8,89.7z"/>
	<path class="st56" d="M48,89.3c0.1-0.1,0.1-0.1,0.2-0.2C48.1,89.1,48.1,89.2,48,89.3z"/>
	<path class="st58" d="M59.2,72.3c0.1-0.1,0.1-0.1,0.2-0.2C59.3,72.2,59.3,72.2,59.2,72.3z"/>
	<path class="st58" d="M59.4,72.1c0.1-0.1,0.1-0.1,0.2-0.2C59.5,72,59.5,72,59.4,72.1z"/>
	<path class="st33" d="M85.9,49.1c0.1-0.1,0.1-0.1,0.2-0.2C86,49,85.9,49,85.9,49.1z"/>
	<path class="st33" d="M86.3,48.9c0.1-0.1,0.1-0.1,0.2-0.2C86.4,48.8,86.3,48.8,86.3,48.9z"/>
	<path class="st33" d="M86.4,48.7c0.1-0.1,0.1-0.1,0.2-0.2C86.6,48.6,86.5,48.7,86.4,48.7z"/>
	<path class="st33" d="M86.8,48.5c0.1-0.1,0.1-0.1,0.2-0.2C87,48.4,86.9,48.5,86.8,48.5z"/>
	<path class="st33" d="M87.2,48.3c0.1-0.1,0.1-0.1,0.2-0.2C87.3,48.2,87.3,48.3,87.2,48.3z"/>
	<path class="st33" d="M87.4,48.2c0.1-0.1,0.1-0.1,0.2-0.2C87.5,48,87.5,48.1,87.4,48.2z"/>
	<path class="st5" d="M38,119.2c0-0.2,0-0.4,0.2-0.6C38.2,118.8,38.2,119,38,119.2z"/>
	<path class="st60" d="M240.5,156.6c0.5-0.2,0.6,0.1,0.8,0.4c0.5,0.8,1,1.6,1.4,2.5c0.2,0.3,0.3,0.6,0.7,0.8c0,0.8-0.4,1.5-0.4,2.3
		c-0.1,0.1-0.1,0.3-0.2,0.4c0,0.1,0,0.1,0,0.2c-0.1,1.3-0.3,2.6-1,3.7c-0.8-0.2-0.9-1-1.3-1.6c-0.5-0.7-0.8-1.6-1.6-2.1
		c0.1-0.5,0.3-0.9,0.4-1.4c0.3-1.2,0.5-2.3,0.8-3.5c0.1-0.1,0.1-0.3,0.2-0.4c0-0.1,0-0.3,0-0.4c0.2-0.2,0-0.4,0.2-0.6
		C240.5,156.9,240.5,156.8,240.5,156.6z"/>
	<path class="st54" d="M240.5,157c0,0.2,0,0.4-0.2,0.6C240.3,157.4,240.3,157.2,240.5,157z"/>
	<path class="st54" d="M240.3,158c0,0.2,0,0.3-0.2,0.4C240.1,158.2,240.1,158.1,240.3,158z"/>
	<path class="st61" d="M232,181.9c0-0.4,0.3-0.8,0.5-1.1c1.1-2.4,2.3-4.8,3.2-7.4c0.2-0.7,0.7-1.4,0.8-2.1c0.1-0.1,0.1-0.1,0.2-0.2
		l0,0c0.3-0.2,0.5-0.1,0.7,0.1c0.7,1.1,1.5,2.2,1.9,3.5c-0.1,0.7-0.3,1.3-0.6,2c-1.2,2.5-2.1,5-3.4,7.5c-0.2,0.3-0.3,0.7-0.6,1
		c-0.1,0.1-0.2,0.1-0.3,0.1c-0.5-0.6-0.7-1.3-1.1-1.9C232.9,182.8,232.6,182.3,232,181.9z"/>
	<path class="st62" d="M238.9,174.8c-0.1-0.7-0.7-1.3-1-1.9c-0.2-0.4-0.5-0.8-0.7-1.2c-0.1-0.3-0.3-0.5-0.6-0.5
		c0-0.4,0.2-0.7,0.3-1.1c0.7-2,1.3-4,1.9-6c0.1-0.1,0.1-0.3,0.2-0.4c0-0.1,0-0.3,0-0.4c0.2-0.1,0.5-0.2,0.6,0.1
		c0.2,0.4,0.5,0.7,0.7,1.1c0.4,0.8,1,1.5,1.4,2.4c0.3,0.4,0.1,0.8,0,1.3c-0.2,0.8-0.4,1.5-0.7,2.3c-0.4,1.2-0.8,2.4-1.2,3.5
		C239.5,174.3,239.5,174.7,238.9,174.8z"/>
	<path class="st60" d="M238.9,163.6c0,0.2,0,0.3-0.2,0.4C238.8,163.8,238.8,163.7,238.9,163.6z"/>
	<path class="st62" d="M236.6,171.1c-0.1,0.1-0.1,0.1-0.2,0.2C236.5,171.3,236.6,171.2,236.6,171.1z"/>
	<path class="st63" d="M232,181.9c0.2,0,0.4-0.3,0.5,0c0.7,1,1.5,2.1,1.8,3.3c0.2,0.5-0.1,0.8-0.3,1.2c-1.2,2.3-2.4,4.5-3.8,6.7
		c-0.2,0.3-0.4,0.6-0.8,0.5c-0.9-1-1.4-2.2-2.1-3.3c0.6-1.1,1.3-2.2,1.9-3.3c0.7-1.4,1.7-2.8,2.3-4.2c0.1-0.1,0.1-0.3,0.2-0.4
		C231.9,182.2,231.9,182,232,181.9z"/>
	<path class="st61" d="M232,181.9c0,0.2,0,0.3-0.2,0.4C231.8,182.2,231.8,182,232,181.9z"/>
	<path class="st61" d="M231.8,182.3c0,0.2,0,0.3-0.2,0.4C231.6,182.5,231.7,182.4,231.8,182.3z"/>
	<path class="st18" d="M141.9,148.7c2.5,1.2,5,2.4,7.1,4.2c0.3,0.6-0.3,0.8-0.6,1c-4.4,2.6-8.9,5.2-13.4,7.7
		c-5.6,3.3-11.3,6.5-16.9,9.7c-0.2,0.1-0.4,0.3-0.6,0.3c-0.7-0.2-1.2-0.5-1.8-0.8c-2-1.1-4.2-1.9-6.5-2.3c-0.6-0.4-0.7-0.4-0.1-0.8
		c1.3-0.8,2.7-1.6,4-2.4c2-1.1,3.9-2.3,5.9-3.4c1.9-1.1,3.8-2.2,5.7-3.2c2.2-1.3,4.4-2.5,6.6-3.8c1.9-1.1,3.8-2.2,5.7-3.3
		C138.6,150.7,140.3,149.8,141.9,148.7z"/>
	<path class="st22" d="M155.4,96.8c1.4,0.3,2.8,1,4.1,1.5c1.1,0.4,2.2,1,3.3,1.3c1.6,0.6,3.4,0.6,5.1,0.5c-0.3,0.5-0.7,0.7-1.2,1
		c-4.1,2.4-8.2,4.7-12.3,7.1c-2.8,1.6-5.6,3.2-8.4,4.8c-2.6,1.5-5.3,3.1-7.9,4.6c-1.3,0.8-2.7,1.5-4,2.3c-0.3,0.2-0.6,0.3-0.8,0.7
		c-3.1-1.2-6-2.9-8.5-5.2c-0.2-0.2-0.4-0.4-0.6-0.6c0-0.5,0.5-0.7,0.8-0.8c9.7-5.6,19.5-11.2,29.2-16.9
		C154.6,96.8,155,96.6,155.4,96.8z"/>
	<path class="st22" d="M133.7,120.7c-0.2,0-0.3-0.1-0.4-0.2C133.5,120.5,133.6,120.6,133.7,120.7z"/>
	<path class="st22" d="M134.1,120.9c-0.2,0-0.3,0-0.4-0.2C133.9,120.7,134,120.8,134.1,120.9z"/>
	<path class="st22" d="M135.5,121.5c-0.2,0-0.3,0-0.4-0.2C135.2,121.3,135.4,121.3,135.5,121.5z"/>
	<path class="st22" d="M135.9,121.7c-0.2,0-0.3-0.1-0.4-0.2C135.6,121.5,135.8,121.6,135.9,121.7z"/>
	<path class="st22" d="M136.2,121.9c-0.2,0-0.3,0-0.4-0.2C136,121.7,136.2,121.7,136.2,121.9z"/>
	<path class="st22" d="M137.2,122.3c-0.2,0-0.3,0-0.4-0.2C136.9,122.1,137.1,122.1,137.2,122.3z"/>
	<path class="st22" d="M136.6,122.1c-0.1,0-0.2,0-0.2-0.1C136.5,122,136.5,122,136.6,122.1z"/>
	<path class="st22" d="M134.9,121.3c-0.1,0-0.2,0-0.2-0.1C134.7,121.2,134.8,121.2,134.9,121.3z"/>
	<path class="st22" d="M134.5,121.1c-0.1,0-0.2,0-0.2-0.1C134.3,121,134.4,121,134.5,121.1z"/>
	<path class="st10" d="M144.3,125.4c-0.2,0-0.3,0-0.4-0.2C144.1,125.2,144.3,125.2,144.3,125.4z"/>
	<path class="st11" d="M155,130c-0.1,0-0.2,0-0.2-0.1C154.8,129.9,154.9,129.9,155,130z"/>
	<path class="st23" d="M111,133.7c0.1,0,0.2,0,0.2,0.1C111.1,133.8,111,133.8,111,133.7z"/>
	<path class="st64" d="M195.5,223.1c-0.9,0.2-1.5,0.8-2.2,1.3c-3.4,2.1-6.9,4-10.6,5.7c-3.8,1.7-7.7,3.3-11.6,4.5
		c-3.9,1.3-7.9,2.3-11.9,3c-1.1,0.2-2.1,0.4-3.2,0.6c0.2-0.6,0.8-0.7,1.2-1c2.4-1.4,4.8-2.8,7.1-4.2c2.4-1.4,4.7-2.7,7.1-4
		c2.2-1.3,4.4-2.6,6.6-3.8c1.9-1.1,3.8-2.2,5.8-3.3c2.6-1.5,5.3-3.1,7.9-4.6c1.9-1.1,3.8-2.2,5.7-3.3c1.9-1.1,3.8-2.2,5.7-3.3
		c1.9-1.1,3.7-2.1,5.6-3.2c2.3-1.3,4.5-2.7,6.8-3.9c1.3-0.7,2.6-1.7,4.1-2.1c0,0.7-0.5,1.1-0.9,1.6c-0.8,0.8-1.5,1.8-2.3,2.6
		c-2,2.4-4.5,4.5-6.7,6.8c-2.1,1.8-4.1,3.6-6.2,5.3c-2.1,1.6-4.2,3.1-6.3,4.6c-0.3,0.2-0.5,0.4-0.9,0.4c-0.1,0-0.1,0-0.2,0
		c-0.1,0.1-0.1,0.1-0.2,0.2l0,0C195.6,222.9,195.6,223,195.5,223.1z"/>
	<path class="st65" d="M227.4,190.2c0.2,0,0.3,0.1,0.4,0.3c0.6,1,1.2,1.9,1.7,3c0.1,0,0.1,0.1,0.1,0.2c0,0.1-0.1,0.2-0.1,0.3
		c0,0.1-0.1,0.1-0.1,0.2c0,0.1-0.1,0.1-0.1,0.2c0,0,0,0.1-0.1,0.1c0,0.1-0.1,0.2-0.1,0.2c-1.4,2.3-2.9,4.4-4.5,6.5
		c-0.2,0.3-0.4,0.6-0.8,0.6c-0.9-0.9-1.4-2.1-2.1-3.2c1.7-2.4,3.4-4.7,5-7.1c0.1-0.1,0.1-0.1,0.2-0.2c0-0.1,0-0.1,0-0.2
		c0.1-0.1,0.1-0.1,0.2-0.2l0,0c0.1-0.1,0.1-0.3,0.2-0.4l0,0c0.1-0.1,0.1-0.1,0.2-0.2C227.4,190.4,227.4,190.3,227.4,190.2z"/>
	<path class="st66" d="M221.6,198.7c0.2,0,0.4,0.1,0.5,0.3c0.5,0.9,1,1.8,1.6,2.8c0.1,0.1,0.1,0.1,0.1,0.2c0,0.1-0.1,0.2-0.1,0.2
		c0,0-0.1,0.1-0.1,0.1c0,0.1-0.1,0.1-0.2,0.2c0,0-0.1,0.1-0.1,0.1c-1.5,1.8-2.8,3.8-4.5,5.4c-0.2,0.2-0.4,0.5-0.7,0.5
		c-1-0.8-1.4-2.1-2.1-3.1c0.6-0.7,1.2-1.4,1.8-2.1c0.6-0.6,1.2-1.2,1.7-2c0.6-0.8,1.1-1.7,1.9-2.3
		C221.5,199,221.5,198.8,221.6,198.7L221.6,198.7z"/>
	<path class="st63" d="M227.2,190.6c0,0.2,0,0.3-0.2,0.4C227,190.9,227,190.7,227.2,190.6z"/>
	<path class="st65" d="M221.6,198.7c0,0.2,0,0.3-0.2,0.4C221.4,199,221.4,198.8,221.6,198.7z"/>
	<path class="st63" d="M227.4,190.4c-0.1,0.1-0.1,0.1-0.2,0.2C227.2,190.6,227.3,190.5,227.4,190.4z"/>
	<path class="st63" d="M227,191c-0.1,0.1-0.1,0.1-0.2,0.2C226.9,191.1,226.9,191.1,227,191z"/>
	<path class="st63" d="M226.8,191.4c-0.1,0.1-0.1,0.1-0.2,0.2C226.7,191.5,226.7,191.5,226.8,191.4z"/>
	<path class="st17" d="M99,120.1c0.1,0.1,0.1,0.1,0.1,0.3C99.1,120.3,99.1,120.2,99,120.1z"/>
	<path class="st24" d="M96.9,111.6c0.2,0.2,0.1,0.5,0.1,0.8C96.8,112.2,96.9,111.9,96.9,111.6z"/>
	<path class="st18" d="M172.9,142.9c-0.1,0-0.2-0.1-0.1-0.2C172.8,142.8,172.9,142.9,172.9,142.9z"/>
	<path class="st18" d="M172.7,142.6c-0.1,0-0.2-0.1-0.2-0.2C172.6,142.4,172.7,142.5,172.7,142.6z"/>
	<path class="st18" d="M172.5,142.4c-0.1,0-0.2-0.1-0.2-0.2C172.4,142.2,172.5,142.3,172.5,142.4z"/>
	<path class="st18" d="M172.3,142.2c-0.1,0-0.2-0.1-0.2-0.2C172.2,142.1,172.3,142.1,172.3,142.2z"/>
	<path class="st18" d="M172.1,142c-0.1-0.1-0.1-0.1-0.2-0.2C172,141.8,172.1,141.9,172.1,142z"/>
	<path class="st18" d="M172,141.8c-0.1,0-0.2-0.1-0.2-0.2C171.8,141.6,171.9,141.7,172,141.8z"/>
	<path class="st18" d="M171.8,141.6c-0.1,0-0.2-0.1-0.2-0.2C171.7,141.4,171.7,141.5,171.8,141.6z"/>
	<path class="st18" d="M171.6,141.4c-0.1,0-0.2-0.1-0.1-0.2C171.5,141.3,171.5,141.3,171.6,141.4z"/>
	<path class="st18" d="M171.4,141.1c-0.1,0-0.2-0.1-0.2-0.2C171.3,140.9,171.3,141,171.4,141.1z"/>
	<path class="st18" d="M173.1,143.1c-0.1-0.1-0.1-0.1-0.2-0.2C173,143,173.1,143.1,173.1,143.1z"/>
	<path class="st5" d="M99.6,95.1c0,0.2,0,0.3-0.2,0.4C99.4,95.3,99.4,95.2,99.6,95.1z"/>
	<path class="st5" d="M99.3,95.6c0,0.1,0,0.2-0.1,0.2C99.2,95.8,99.3,95.7,99.3,95.6z"/>
	<path class="st5" d="M99.7,94.9c0,0.1-0.1,0.2-0.1,0.2C99.6,95,99.7,94.9,99.7,94.9z"/>
	<path class="st5" d="M99.9,94.5c0,0.1,0,0.2-0.1,0.2C99.8,94.7,99.9,94.6,99.9,94.5z"/>
	<path class="st5" d="M100.1,94.1c0,0.1,0,0.2-0.1,0.2C100,94.3,100.1,94.2,100.1,94.1z"/>
	<path class="st5" d="M100.3,93.7c0,0.1-0.1,0.2-0.2,0.3C100.2,93.9,100.3,93.8,100.3,93.7z"/>
	<path class="st26" d="M147.4,75.5c-0.5-0.1-1.1,0.1-1.6-0.1C146.4,75.4,146.9,75.2,147.4,75.5z"/>
	<path class="st26" d="M149.7,75.7c-0.4,0-0.8,0.1-1.2-0.1C149,75.6,149.4,75.4,149.7,75.7z"/>
	<path class="st26" d="M151.7,75.9c-0.3,0-0.7,0.1-1-0.2C151,75.8,151.4,75.6,151.7,75.9z"/>
	<path class="st24" d="M158.6,77.1c-0.2,0-0.4,0-0.6-0.2C158.3,76.9,158.5,76.9,158.6,77.1z"/>
	<path class="st24" d="M159.4,77.3c-0.2,0-0.3,0-0.4-0.1C159.1,77.1,159.3,77.1,159.4,77.3z"/>
	<path class="st24" d="M160.2,77.5c-0.2,0-0.3,0-0.4-0.1C159.9,77.3,160.1,77.3,160.2,77.5z"/>
	<path class="st24" d="M161,77.7c-0.2,0-0.3,0-0.4-0.2C160.7,77.5,160.8,77.5,161,77.7z"/>
	<path class="st24" d="M161.5,77.8c-0.2,0-0.3,0-0.4-0.1C161.3,77.7,161.4,77.7,161.5,77.8z"/>
	<path class="st5" d="M142.8,75.3c-1.1,0-2.2,0-3.3,0C140.6,75.1,141.7,75.1,142.8,75.3z"/>
	<path class="st5" d="M136.9,75.4c-0.5,0.3-1.1,0.1-1.6,0.2C135.8,75.2,136.3,75.4,136.9,75.4z"/>
	<path class="st5" d="M134.4,75.6c-0.3,0.3-0.7,0.1-1,0.1C133.7,75.5,134,75.6,134.4,75.6z"/>
	<path class="st5" d="M132.6,75.8c-0.2,0.2-0.5,0.1-0.8,0.1C132.1,75.7,132.3,75.8,132.6,75.8z"/>
	<path class="st25" d="M169.2,81c-0.2,0-0.3-0.1-0.4-0.2C169,80.8,169.2,80.8,169.2,81z"/>
	<path class="st25" d="M169.8,81.4c-0.1,0-0.3-0.1-0.4-0.2C169.6,81.2,169.8,81.2,169.8,81.4z"/>
	<path class="st25" d="M169.5,81.1c-0.1,0-0.2-0.1-0.2-0.2C169.3,81,169.4,81.1,169.5,81.1z"/>
	<path class="st25" d="M168.9,80.8c-0.1,0-0.2-0.1-0.3-0.2C168.7,80.6,168.8,80.7,168.9,80.8z"/>
	<path class="st25" d="M168.5,80.5c-0.1,0-0.2,0-0.2-0.1C168.3,80.5,168.4,80.5,168.5,80.5z"/>
	<path class="st9" d="M97.2,175.4c0,0.2,0.1,0.5-0.1,0.6C97.1,175.8,97,175.6,97.2,175.4z"/>
	<path class="st23" d="M103.8,127.7c0.1,0,0.2,0.1,0.2,0.2C103.9,127.8,103.9,127.8,103.8,127.7z"/>
	<path class="st23" d="M103.6,127.5c0.1,0,0.2,0.1,0.2,0.2C103.7,127.6,103.7,127.6,103.6,127.5z"/>
	<path class="st23" d="M103.4,127.2c0.1,0,0.2,0.1,0.2,0.2C103.5,127.4,103.5,127.4,103.4,127.2z"/>
	<path class="st21" d="M97,103.4c0,0.3,0.1,0.7-0.2,1C96.9,104,96.7,103.7,97,103.4z"/>
	<path class="st67" d="M211.5,229.6c-0.7,0.2-1.1,0.8-1.7,1.2c-2.5,1.7-5,3.6-7.6,5.1c0-0.5-0.2-0.9-0.4-1.3
		c-0.8-1.4-1.7-2.8-2.5-4.2c-0.2-0.3-0.4-0.7-0.4-1.1c0.1-0.4,0.3-0.5,0.6-0.7c2.4-1.6,4.7-3.3,7-5c1.2-0.8,2.3-1.8,3.5-2.8
		c0.3-0.2,0.5-0.5,0.9-0.4c1.1,1.3,1.7,2.8,2.6,4.2c0.3,0.4,0.5,0.9,0.8,1.3c0.2,0.3,0.4,0.7,0.1,1.1c-0.7,0.8-1.7,1.4-2.5,2.1
		C211.8,229.3,211.6,229.4,211.5,229.6z"/>
	<path class="st68" d="M206.7,223.8c-0.8,0.9-1.9,1.5-2.8,2.2c-1.6,1.2-3.3,2.2-4.9,3.3c-1,0.6-1.9,1.2-2.9,1.7
		c0.2-0.4,0.1-0.9-0.1-1.3c-0.2-0.4-0.5-0.8-0.7-1.1c-0.2-0.3-0.4-0.7-0.3-1.1l0,0c0.1-0.1,0.1-0.1,0.2-0.2c0.9-0.6,1.8-1.2,2.7-1.7
		c0.1-0.3,0.3-0.5,0.5-0.6c2.1-1.3,4-2.8,6-4.3c0.2-0.2,0.5-0.4,0.9-0.3c0.7,0.7,1.1,1.7,1.6,2.6
		C206.9,223.3,206.9,223.6,206.7,223.8z"/>
	<path class="st68" d="M195.5,231.5c0.1-0.1,0.1-0.1,0.2-0.2C195.6,231.4,195.6,231.5,195.5,231.5z"/>
	<path class="st67" d="M201.9,236.2c0,0.1,0,0.1,0,0.2c-0.1,0-0.1,0-0.2,0C201.8,236.3,201.8,236.2,201.9,236.2z"/>
	<path class="st67" d="M201.3,236.6c-0.1,0.1-0.1,0.1-0.2,0.2C201.2,236.7,201.2,236.6,201.3,236.6z"/>
	<path class="st67" d="M200.9,236.8c-0.1,0.1-0.1,0.1-0.2,0.2C200.8,236.9,200.9,236.8,200.9,236.8z"/>
	<path class="st67" d="M200.3,237.1c-0.1,0.1-0.1,0.1-0.2,0.2C200.2,237.3,200.3,237.2,200.3,237.1z"/>
	<path class="st67" d="M200,237.3c-0.1,0.1-0.1,0.1-0.2,0.2C199.8,237.5,199.9,237.4,200,237.3z"/>
	<path class="st69" d="M97.1,35.2c-2,0.9-4,1.8-6,2.7c-0.6,0.3-1.2,0.5-1.8,0.9c-0.1,0.4-0.5,0.5-0.8,0.7c-3.8,1.9-7.5,4.1-11,6.5
		c-0.5,0.3-0.9,0.7-1.5,0.7c-1.7-0.1-3.2,0.4-4.8,0.6c-2.7,0.4-5.3,0.8-8,1.3c-0.4,0.1-0.8,0.2-1.1-0.1c0.7-1,1.7-1.6,2.5-2.3
		c1.4-1.2,2.8-2.2,4.2-3.2c0.2-0.1,0.2-0.3,0.4-0.4c0.4,0,0.6-0.4,0.9-0.6c1.9-1.3,3.7-2.6,5.6-3.8c0.1,0,0.2,0,0.3-0.1
		c1.4,0.1,2.7-0.3,4-0.5c1.8-0.3,3.6-0.6,5.5-0.9c1.4-0.2,2.9-0.5,4.3-0.7c1.5-0.2,3-0.4,4.4-0.7c0.6-0.1,1.1-0.2,1.7-0.3
		C96.3,35,96.7,35,97.1,35.2z"/>
	<path class="st70" d="M205.2,220.5c-2.4,1.8-4.8,3.6-7.3,5.2c-0.6-1-1.2-2.1-1.7-3.1c0.8-0.8,1.8-1.3,2.7-2
		c2.3-1.6,4.5-3.3,6.6-5.1c1.1-0.9,2.2-1.8,3.2-2.9c0.2-0.2,0.5-0.4,0.8-0.5c0.1,0,0.1-0.1,0.2-0.1c1.1,0.3,1.9,2.4,1.3,3.3
		c-0.1,0.2-0.2,0.4-0.3,0.6c-1.2,1.6-2.8,2.7-4.4,3.9c-0.1,0.1-0.2,0.1-0.3,0.2c-0.1,0-0.1,0.1-0.2,0.1c-0.1,0-0.1,0.1-0.2,0.1
		c0,0-0.1,0-0.1,0.1c-0.1,0-0.1,0.1-0.2,0.1C205.2,220.5,205.2,220.5,205.2,220.5z"/>
	<path class="st70" d="M195.7,222.9c0.1-0.1,0.1-0.1,0.2-0.2C195.8,222.7,195.8,222.8,195.7,222.9z"/>
	<path class="st70" d="M195.5,223.1c0.1-0.1,0.1-0.1,0.2-0.2C195.6,222.9,195.6,223,195.5,223.1z"/>
	<path class="st35" d="M195.1,227.5c-0.1,0.1-0.1,0.1-0.2,0.2C195,227.6,195.1,227.6,195.1,227.5z"/>
	<path class="st71" d="M76.2,46.6c0.9-0.4,1.6-1,2.4-1.6c2.2-1.5,4.5-2.8,6.9-4.2c1.3-0.7,2.6-1.3,3.8-2c0.3,0.3,0.7,0.2,1.1,0.1
		c2.3-0.4,4.7-0.7,7-1.1c1.2-0.2,2.5-0.4,3.7-0.4c-1,0.6-2.1,0.9-3.2,1.3c-3.2,1.4-6.4,2.9-9.5,4.6c-2.2,1.2-4.4,2.5-6.5,3.9
		c-0.2,0.1-0.4,0.2-0.5,0.4c-0.1,0-0.3,0-0.4,0c-2,0.6-4,0.7-6,1c-0.3,0-0.6,0-0.9-0.3c-0.3-0.4,0-0.6,0.2-0.8
		C74.9,47.3,75.5,46.8,76.2,46.6z"/>
	<path class="st72" d="M214.4,227.1c0-0.5-0.3-1-0.5-1.4c-1-1.7-2-3.4-2.9-5.2c0-0.2,0.2-0.4,0.4-0.5c0.1,0,0.1-0.1,0.2-0.1
		c0,0,0.1,0,0.1-0.1c0.1,0,0.1-0.1,0.2-0.1c0,0,0.1,0,0.1-0.1c0,0,0.1-0.1,0.1-0.1c0,0,0,0,0.1-0.1c0,0,0.1-0.1,0.1-0.1
		c0,0,0,0,0.1-0.1c0,0,0.1-0.1,0.1-0.1c0,0,0,0,0.1-0.1c0,0,0.1-0.1,0.1-0.1c0,0,0,0,0.1-0.1c0,0,0.1-0.1,0.2-0.1
		c0.1,0,0.1-0.1,0.2-0.1c0.1,0,0.1-0.1,0.2-0.1c0,0,0.1,0,0.1-0.1c0-0.1,0.1-0.1,0.1-0.2c0,0,0-0.1,0.1-0.1c0-0.1,0.1-0.1,0.1-0.2
		c1.1-1,2.2-2,3.2-3.1c0.1-0.1,0.1-0.1,0.2-0.2c0,0,0.1-0.1,0.1-0.1c0.3-0.3,0.6-0.6,0.9-0.9c0.2-0.2,0.4-0.5,0.8-0.3
		c0.9,1.8,1.9,3.4,2.9,5.2c0.3,0.6,0.4,1.1,0.3,1.8c-0.1,0.2-0.2,0.3-0.4,0.4c-0.1,0.1-0.1,0.1-0.2,0.2l0,0
		c-0.1,0.1-0.1,0.1-0.2,0.2l0,0c-0.1,0.1-0.1,0.1-0.2,0.2l0,0c-0.3,0.1-0.5,0.3-0.6,0.6c-1.6,1.7-3.4,3.2-5.2,4.8
		C214.9,226.8,214.7,227,214.4,227.1z"/>
	<path class="st73" d="M76.2,46.6c-0.5,0.4-0.9,0.7-1.4,1.1c-0.3,0.2-0.5,0.3-0.7,0.6c-0.1,0.3-0.3,0.5-0.6,0.6
		c-2.6,2-5.1,3.9-7.5,6.1c-0.4,0.3-0.7,0.6-1.2,0.8c-3.4,0.4-6.7,1-10.1,1.5c-0.6,0.1-1.1,0.3-1.6-0.2c0.4-0.6,1-1.1,1.6-1.7
		c1.2-1.3,2.5-2.5,3.7-3.7c0.5-0.5,1.3-0.8,1.7-1.6c0,0,0,0,0,0c0.1-0.1,0.1-0.1,0.2-0.2l0,0c0.1-0.1,0.1-0.1,0.2-0.2l0,0
		c0.1-0.2,0.3-0.4,0.6-0.6c0.4-0.2,0.6-0.8,1.2-0.8c1.4-0.2,2.8-0.4,4.1-0.6c1.9-0.3,3.9-0.6,5.8-0.9c0.8-0.1,1.7-0.2,2.5-0.4
		C75.2,46.4,75.7,46.4,76.2,46.6z"/>
	<path class="st38" d="M61,49.3c-0.1,0.3-0.3,0.5-0.6,0.6C60.4,49.5,60.6,49.3,61,49.3z"/>
	<path class="st38" d="M60.2,50.1c-0.1,0.1-0.1,0.1-0.2,0.2C60.1,50.2,60.1,50.1,60.2,50.1z"/>
	<path class="st38" d="M60.4,49.9c-0.1,0.1-0.1,0.1-0.2,0.2C60.2,50,60.3,50,60.4,49.9z"/>
	<path class="st74" d="M53,57.2c1.3,0.1,2.6-0.3,4-0.5c1.9-0.2,3.7-0.6,5.5-0.9c0.8-0.2,1.6-0.2,2.5-0.2c-0.4,1-1.3,1.6-2.1,2.2
		c-1.1,1-2.1,1.9-3,3.1c-1.3,1.3-2.4,2.6-3.6,3.9c-0.3,0.3-0.5,0.6-0.9,0.6c-2.9,0.3-5.8,0.9-8.7,1.3c-0.5,0.1-1.1,0.4-1.5-0.2
		c0.1-0.3,0.4-0.4,0.4-0.8c0.5-0.2,0.7-0.7,1-1c1-1.4,2.2-2.6,3.3-4c0.8-0.9,1.7-1.7,2.3-2.7C52.3,57.8,52.8,57.7,53,57.2z"/>
	<path class="st75" d="M232.8,208.2c-1.6,2-3.2,4-4.8,6c-0.1,0.1-0.1,0.1-0.2,0.2c-0.1,0.1-0.2,0.1-0.3,0.1
		c-0.9-1.3-1.5-2.6-2.3-3.9c-0.5-0.9-1.1-1.7-1.4-2.6c0-0.1,0-0.2,0-0.3c0-0.1,0.1-0.3,0.1-0.4c0.3-0.6,0.8-1.1,1.2-1.6
		c1.1-1.3,2.1-2.7,3.1-4.1c0.2-0.3,0.4-0.7,0.9-0.8c0.3,0.1,0.5,0.4,0.6,0.7c0.9,1.6,1.9,3.3,2.8,4.9c0.2,0.4,0.6,0.9,0.4,1.4
		c0,0.1,0,0.1,0,0.2C232.9,208.1,232.8,208.1,232.8,208.2z"/>
	<path class="st48" d="M233,207.8c-0.3-1.1-1-2.1-1.6-3.1c-0.7-1.3-1.5-2.6-2.3-3.9c0.1-1,1-1.7,1.4-2.5c0.4-0.7,0.9-1.3,1.3-2
		c0.2-0.2,0.4-0.6,0.8-0.5c0.5,0.3,0.7,0.8,1,1.3c0.9,1.5,1.7,2.9,2.5,4.4c0.2,0.4,0.5,0.8,0.5,1.3c-0.5,0.8-1.1,1.7-1.6,2.5
		c-0.5,0.8-1.2,1.5-1.6,2.3C233.2,207.7,233.1,207.7,233,207.8z"/>
	<path class="st48" d="M232.8,208.2c0.1-0.1,0.1-0.1,0.2-0.2C232.9,208.1,232.8,208.1,232.8,208.2z"/>
	<path class="st41" d="M227.7,214.4c0.1-0.1,0.1-0.1,0.2-0.2C227.9,214.2,227.8,214.3,227.7,214.4z"/>
	<path class="st41" d="M227.6,214.4c0.1,0,0.1,0,0.2,0c-0.1,0.1-0.1,0.1-0.2,0.2C227.5,214.5,227.5,214.5,227.6,214.4
		C227.5,214.4,227.5,214.4,227.6,214.4z"/>
	<path class="st41" d="M227.6,214.6c-0.1,0.1-0.1,0.1-0.2,0.2l0,0C227.3,214.6,227.4,214.5,227.6,214.6L227.6,214.6z"/>
	<path class="st76" d="M227.6,214.6c-0.1,0.1-0.1,0.1-0.2,0.2c-0.7,0.5-1.1,1.2-1.7,1.8c-1.2,1.4-2.4,2.6-3.8,3.8c0,0-0.1,0-0.1-0.1
		c-0.1-1.5-1.1-2.6-1.8-3.9c-0.5-1-1.3-1.9-1.4-3c-0.1-0.4,0.2-0.6,0.4-0.8c1.4-1.4,2.6-3,4-4.5c0.2-0.3,0.4-0.6,0.9-0.5
		c0.5,1.1,1.2,2.1,1.7,3.2c0.5,0.9,1,1.8,1.6,2.6c0.2,0.3,0.1,0.7,0.4,1C227.6,214.4,227.6,214.5,227.6,214.6z"/>
	<path class="st34" d="M221.4,220.9c0.1-0.1,0.1-0.1,0.2-0.2C221.5,220.8,221.4,220.9,221.4,220.9z"/>
	<path class="st34" d="M221,221.3c0.1-0.1,0.1-0.1,0.2-0.2C221.1,221.2,221.1,221.3,221,221.3z"/>
	<path class="st34" d="M221.2,221.1c0.1-0.1,0.1-0.1,0.2-0.2C221.3,221,221.3,221.1,221.2,221.1z"/>
	<path class="st77" d="M33.7,85.4c0.7-1.7,1.5-3.3,2.5-4.9c0.1-0.2,0.2-0.3,0.2-0.5c1-1.6,1.9-3.2,2.9-4.8c1-0.5,2-0.5,3.1-0.7
		c1.8-0.3,3.5-0.5,5.3-0.9c0.4-0.1,0.8-0.1,1.1,0c0.5,0.5,0,0.9-0.2,1.2c-1.6,2.4-3.2,4.7-4.6,7.2c-0.2,0.4-0.4,0.8-0.7,1.2
		c-0.2,0.3-0.3,0.7-0.8,0.8c-1.2,0.5-2.5,0.5-3.8,0.8c-1.1,0.2-2.1,0.4-3.2,0.5C35,85.4,34.4,85.6,33.7,85.4z"/>
	<path class="st78" d="M42.6,84.1c1.8-3.3,3.9-6.4,5.9-9.5c0.2-0.2,0.3-0.5,0.4-0.7c0-0.1,0.1-0.2,0.1-0.3c0-0.1,0.1-0.1,0.1-0.2
		c0,0,0-0.1,0.1-0.1c0-0.1,0.1-0.1,0.1-0.2c0-0.1,0.1-0.1,0.1-0.2c0-0.1,0.1-0.1,0.2-0.2c0,0,0.1-0.1,0.1-0.1
		c0.1-0.1,0.1-0.1,0.2-0.1c0.1,0,0.2-0.1,0.3-0.1c1-0.1,2.1-0.3,3.1-0.4c0.5-0.1,0.9-0.2,1.4,0.1c0,0.1,0,0.1,0,0.2
		c-2.5,3.2-4.8,6.6-6.9,10c-0.3,0.5-0.6,1.1-0.9,1.7c-0.1,0.2-0.2,0.4-0.4,0.5c-1.4,0.4-2.8,1-4.2,0.4
		C42.3,84.6,42.6,84.4,42.6,84.1z"/>
	<path class="st79" d="M42.2,84.8c1,0.1,2-0.1,3-0.3c0.4-0.1,0.8,0,1.2-0.1c-0.1,0.6-0.5,1.1-0.8,1.6c-0.4,0.8-0.9,1.5-1.2,2.4
		c0,0,0,0,0,0c-0.1,0.1-0.1,0.1-0.2,0.2c0,0.1,0,0.1,0,0.2c-0.1,0.1-0.1,0.1-0.2,0.2c0,0.1,0,0.1,0,0.2c-0.1,0.1-0.1,0.1-0.2,0.2
		c0,0.1,0,0.1,0,0.2c-0.1,0.1-0.1,0.1-0.2,0.2c0,0.1,0,0.1,0,0.2c-0.1,0.1-0.1,0.1-0.2,0.2c0,0.1,0,0.1,0,0.2
		c-0.1,0.1-0.1,0.1-0.2,0.2c0,0.1,0,0.1,0,0.2c-0.1,0.1-0.1,0.1-0.2,0.2c0,0.1,0,0.1,0,0.2c-0.1,0.1-0.1,0.1-0.2,0.2
		c-0.5,1-0.9,1.9-1.4,2.9c-0.2,0.4-0.6,0.5-0.9,0.6c-1.1,0.1-2.2,0.5-3.3,0.2c0.5-1.2,0.9-2.4,1.5-3.5C40,89.3,41.1,87.1,42.2,84.8z
		"/>
	<path class="st80" d="M37.4,95.1c0.8-0.4,1.7-0.2,2.5-0.4c0.6-0.1,1.2-0.2,1.7-0.4c-0.2,1-0.8,1.9-1.2,2.8c-0.8,2-1.6,4.1-2.2,6.1
		c-0.1,0.2-0.1,0.4-0.3,0.5c-1.1,0.2-2.2,0.3-3.2,0.5c-0.2,0-0.4,0-0.6-0.1c0.7-2.8,1.9-5.4,2.9-8.1c0.1-0.3,0.2-0.5,0.2-0.8
		C37.3,95.2,37.3,95.1,37.4,95.1z"/>
	<path class="st43" d="M236.6,202.8c-0.6-0.8-1.1-1.8-1.6-2.7c-0.8-1.4-1.6-2.8-2.4-4.2c-0.1-0.2,0-0.4,0.1-0.6
		c0.8-1.4,1.7-2.8,2.5-4.3c0.1-0.2,0.2-0.4,0.5-0.4c0.7,0.6,0.9,1.4,1.4,2.1c0.8,1.3,1.5,2.6,2.3,3.9c0.2,0.4,0.6,0.8,0.4,1.3
		c-0.2,0.8-0.9,1.4-1.2,2.1c-0.1,0.1-0.1,0.1-0.2,0.2c-0.1,0.1-0.1,0.3-0.2,0.4c-0.1,0.1-0.1,0.1-0.2,0.2c-0.1,0.1-0.1,0.3-0.2,0.4
		c-0.1,0.1-0.1,0.1-0.2,0.2c0,0.1,0,0.1,0,0.2C237.2,201.9,237.1,202.5,236.6,202.8z"/>
	<path class="st81" d="M239.7,198c-1.1-2.3-2.6-4.5-3.8-6.8c-0.1-0.2-0.2-0.3-0.2-0.5c-0.1-0.8,0.5-1.4,0.8-2c0.6-1,1-2,1.5-3
		c0.2-0.3,0.3-0.7,0.7-0.8c0.4,0.1,0.6,0.4,0.8,0.7c1.1,1.9,2.3,3.8,3.3,5.7c0.2,0.4,0.5,0.7,0.2,1.2c-0.3,0.9-0.9,1.7-1.3,2.6
		c-0.1,0.2-0.2,0.3-0.2,0.5c-0.5,0.3-0.6,1-0.9,1.4C240.3,197.2,240.1,197.7,239.7,198z"/>
	<path class="st44" d="M238.4,200.3c0.1-0.1,0.1-0.1,0.2-0.2C238.5,200.1,238.4,200.2,238.4,200.3z"/>
	<path class="st44" d="M238,200.9c0.1-0.1,0.1-0.1,0.2-0.2C238.1,200.7,238,200.8,238,200.9z"/>
	<path class="st44" d="M237.6,201.4c0.1-0.1,0.1-0.1,0.2-0.2C237.7,201.3,237.7,201.4,237.6,201.4z"/>
	<path class="st82" d="M49.6,73.1c0,0.1,0,0.1,0,0.2c-0.1,0.1-0.1,0.1-0.2,0.2l0,0c-0.1,0.1-0.1,0.1-0.2,0.2
		c-0.1,0.1-0.1,0.1-0.2,0.2c-1.2,0-2.3,0.3-3.5,0.5c-1.5,0.2-3,0.5-4.5,0.7c-0.6,0.1-1.1,0.4-1.7,0.2c0.5-0.8,1-1.6,1.5-2.4
		c0.2-0.3,0.5-0.6,0.6-1.1c1.4-1.6,2.4-3.4,3.7-5c0.9,0.2,1.7-0.1,2.5-0.2c1.9-0.3,3.9-0.6,5.8-0.9c0.7-0.1,1.4-0.2,2.1-0.2
		c0.1,0.2,0,0.5-0.1,0.6c-1.9,2.2-3.6,4.5-5.5,6.7l0,0c-0.1,0.1-0.1,0.1-0.2,0.2l0,0C49.7,72.9,49.6,73,49.6,73.1z"/>
	<path class="st83" d="M243,192.4c-0.3-1.2-1.1-2.2-1.7-3.3c-0.6-1.1-1.3-2.1-1.8-3.2c-0.2-0.4-0.5-0.6-0.7-1c-0.3-0.4,0-0.7,0.1-1
		c0.5-1.2,1.1-2.4,1.6-3.7c0.1-0.2,0.3-0.4,0.6-0.4c1,1,1.5,2.4,2.2,3.6c0.7,1.1,1.3,2.2,1.9,3.3c0.2,0.3,0.4,0.5,0.3,0.9
		c-0.2,0.5-0.4,0.9-0.6,1.4c-0.6,0.8-0.9,1.7-1.4,2.5C243.4,191.7,243.3,192.1,243,192.4z"/>
	<path class="st69" d="M249.4,178.5c-0.5,1.7-1.2,3.3-1.9,4.8c-0.2-0.1-0.4-0.2-0.5-0.4c-1.4-2.5-2.9-5-4.3-7.5c0-0.5,0.2-1,0.4-1.4
		c0.4-1,0.7-2.1,1.1-3.2c0.1-0.3,0.1-0.8,0.6-0.8c0.3,1,1,1.8,1.5,2.7c0.6,1.2,1.4,2.4,2,3.6c0.2,0.4,0.5,0.8,0.8,1.2
		C249.3,177.7,249.4,178.1,249.4,178.5z"/>
	<path class="st84" d="M244.7,170c-0.5,1-0.7,2.1-1.1,3.1c-0.1,0.3-0.1,0.7-0.4,0.9c-0.4,0-0.6-0.3-0.7-0.6c-0.6-1.1-1.2-2-1.8-3.1
		c0.3-1.2,0.8-2.3,1-3.5c0.5-1,0.7-2.2,1-3.3c0-0.2,0.1-0.3,0.2-0.4c0.8,0.9,1.3,1.9,1.8,2.9c0.2,0.4,0.8,0.7,0.7,1.3
		C245.3,168.3,244.8,169.1,244.7,170z"/>
	<path class="st85" d="M242.8,175.4c0.8,1,1.3,2.1,1.9,3.2c0.9,1.6,1.8,3.2,2.7,4.7c-0.1,0.4-0.3,0.8-0.4,1.2
		c-0.6,0.8-0.9,1.9-1.3,2.8c-0.1,0.1-0.1,0.2-0.2,0.3c-1.1-1.8-2.2-3.7-3.2-5.5c-0.4-0.7-0.9-1.4-1.2-2.2c0,0-0.1-0.1-0.1-0.2
		c0.3-1.5,0.9-2.9,1.7-4.3C242.6,175.3,242.7,175.4,242.8,175.4z"/>
	<path class="st84" d="M242.8,163c0-0.2,0-0.3,0.2-0.4C243,162.8,243,162.9,242.8,163z"/>
	<path class="st86" d="M59.8,60.9c0.2-0.4,0.5-0.7,0.8-1.1c1.4-1.5,3-2.7,4.4-4.1c0.6-0.6,1.2-1.2,1.9-1.8c2.1-1.7,4.2-3.4,6.4-5.1
		c0.3-0.2,0.5-0.4,0.8-0.5c0.4,0.3,0.9,0.2,1.4,0.1c1.8-0.3,3.5-0.6,5.3-0.9c0.1,0,0.2,0.1,0.2,0.1c-0.3,0.4-0.7,0.6-1.1,0.9
		c-2.7,1.8-5.4,3.8-8,5.9c-1.4,1.1-2.7,2.3-4,3.4c-0.3,0.2-0.6,0.5-0.8,0.9c-0.6,0.5-1.2,1-1.7,1.5c-1.7,0.3-3.4,0.5-5.2,0.8
		C60.1,61.1,59.9,61,59.8,60.9z"/>
	<path class="st87" d="M59.8,60.9c1.5-0.2,2.9-0.5,4.4-0.7c0.4-0.1,0.8,0.2,1.2,0.2c-0.4,0.6-1,1.1-1.5,1.6
		c-1.7,1.7-3.5,3.4-5.1,5.3c-1.4,1.6-2.7,3.3-4,4.9c-0.7,0.3-1.4,0.2-2.2,0.3c-0.9,0.2-1.8,0.4-2.7,0.3c0.2-0.8,0.9-1.3,1.3-2
		c1.1-1.6,2.5-3.1,3.8-4.6c0.2-0.2,0.4-0.5,0.5-0.8c1.2-1.3,2.4-2.5,3.5-3.8C59.3,61.3,59.5,61,59.8,60.9z"/>
	<path class="st56" d="M43,91.4c0.1-0.1,0.1-0.1,0.2-0.2C43.1,91.3,43.1,91.3,43,91.4z"/>
	<path class="st56" d="M43.2,91c0.1-0.1,0.1-0.1,0.2-0.2C43.3,90.9,43.3,90.9,43.2,91z"/>
	<path class="st56" d="M43.4,90.6c0.1-0.1,0.1-0.1,0.2-0.2C43.5,90.5,43.5,90.6,43.4,90.6z"/>
	<path class="st56" d="M43.6,90.2c0.1-0.1,0.1-0.1,0.2-0.2C43.7,90.1,43.6,90.2,43.6,90.2z"/>
	<path class="st56" d="M43.8,89.9c0.1-0.1,0.1-0.1,0.2-0.2C43.9,89.7,43.8,89.8,43.8,89.9z"/>
	<path class="st56" d="M44,89.5c0.1-0.1,0.1-0.1,0.2-0.2C44.1,89.3,44,89.4,44,89.5z"/>
	<path class="st56" d="M44.2,89.1c0.1-0.1,0.1-0.1,0.2-0.2C44.3,88.9,44.2,89,44.2,89.1z"/>
	<path class="st56" d="M44.4,88.7c0.1-0.1,0.1-0.1,0.2-0.2C44.5,88.6,44.4,88.6,44.4,88.7z"/>
	<path class="st15" d="M125.8,175.2L125.8,175.2l-0.2,0c-0.1-0.1-0.3-0.1-0.4-0.2l0,0c-0.2-0.7,0.4-0.8,0.8-1.1
		c3.2-1.9,6.5-3.8,9.8-5.6c5.7-3.3,11.4-6.6,17-9.8c0.3-0.2,0.7-0.6,1.1-0.3c0.1,0,0.1,0.1,0,0.1c0,0.1,0.1,0.2,0.1,0.3
		c0.1,0,0.1,0.1,0,0.1c0,0.1,0.1,0.2,0.1,0.3c0.6,1.1,0.9,2.3,0.9,3.5c0.2,2.5-0.3,5-1.6,7.2c-1.2,2.1-2.9,3.6-5,4.7
		c-3.2,1.7-6.7,2.6-10.4,2.6c-3.1,0-6.2-0.1-9.3-0.8c-0.3-0.1-0.6-0.2-0.8-0.2c-0.1-0.1-0.3-0.1-0.4-0.1c-0.1,0-0.2,0-0.4-0.1
		c-0.1-0.1-0.3-0.1-0.4-0.1c-0.1,0-0.2,0-0.4-0.1c-0.1-0.1-0.3,0-0.4-0.1l-0.1,0l-0.1,0C126.1,175.3,125.9,175.3,125.8,175.2z"/>
	<path class="st88" d="M155.4,96.8c-0.5,0-0.9,0.4-1.4,0.7c-3.6,2.1-7.2,4.2-10.8,6.3c-3.1,1.8-6.3,3.6-9.4,5.4
		c-2.6,1.5-5.3,3.1-7.9,4.6c-0.6,0.3-1.2,0.5-1.6,1c-1.9-1.7-3.1-3.8-3.3-6.3c-0.3-0.8,0-1.3,0.8-1.7c3.5-1.9,7-4,10.4-6
		c3.7-2.2,7.4-4.2,11.1-6.4c0.5-0.3,1-0.3,1.5-0.2c2.2,0.1,4.4,0.6,6.5,1.3C152.7,95.8,154.1,96.1,155.4,96.8z"/>
	<path class="st20" d="M154,158.2c-1.1,0.4-2.1,1.1-3.1,1.7c-1.9,1.1-3.9,2.2-5.8,3.4c-1.9,1.1-3.7,2.1-5.6,3.2
		c-1.9,1.1-3.9,2.2-5.8,3.4c-2.2,1.3-4.4,2.5-6.6,3.8c-0.3,0.2-0.7,0.4-1,0.6c-0.3,0.2-0.8,0.3-0.9,0.8c-1.4-0.3-2.8-0.9-4-1.6
		c-0.1-0.1-0.3-0.1-0.4-0.2l0,0c-0.1-0.1-0.3-0.1-0.4-0.2c-0.1,0-0.1,0-0.2-0.1c-0.1,0-0.1-0.1-0.2-0.1c-0.1,0-0.1,0-0.1-0.1
		c-0.1,0-0.1-0.1-0.2-0.1c-0.1,0-0.1,0-0.1-0.1c-0.1,0-0.1-0.1-0.2-0.1c-0.1,0-0.1,0-0.1-0.1c-0.1,0-0.1-0.1-0.2-0.1l-0.1,0l-0.1,0
		c-0.1-0.1-0.3-0.1-0.4-0.2l0,0c-0.1-0.1-0.3-0.1-0.4-0.2l0,0c-0.1-0.1-0.3-0.1-0.4-0.2c0,0,0,0,0,0c0.4-0.8,1.3-0.9,2-1.3
		c3.2-1.9,6.4-3.8,9.6-5.6c3.6-2.1,7.2-4.1,10.8-6.2c2.9-1.7,5.8-3.3,8.7-5c0.3-0.2,0.5-0.3,0.5-0.6
		C150.9,154.4,152.8,155.9,154,158.2z"/>
	<path class="st89" d="M144.8,94.1c-0.6,0-1,0.2-1.5,0.5c-1.7,1-3.4,2-5.1,3c-2.2,1.3-4.4,2.6-6.7,3.8c-1.9,1.1-3.7,2.2-5.6,3.2
		c-1.6,0.9-3,1.9-4.7,2.6c-0.3,0.1-0.3,0.3-0.3,0.5c0,0.2,0,0.4,0,0.7c-0.3-1-0.2-2-0.1-2.9c0.6-4.4,3.1-7.4,7-9.3
		c2.8-1.3,5.7-2.2,8.7-2.4c2.1-0.2,4.2-0.1,6.3,0.1C143.6,93.9,144.2,93.8,144.8,94.1z"/>
	<path class="st18" d="M120.4,173.1c0.2,0,0.3,0,0.4,0.2C120.6,173.2,120.5,173.2,120.4,173.1z"/>
	<path class="st18" d="M117.5,171.7c0.2,0,0.3,0,0.4,0.2C117.7,171.9,117.6,171.8,117.5,171.7z"/>
	<path class="st18" d="M117.9,171.9c0.2,0,0.3,0,0.4,0.2C118.1,172.1,118,172,117.9,171.9z"/>
	<path class="st18" d="M118.3,172.1c0.2,0,0.3,0,0.4,0.2C118.5,172.3,118.4,172.2,118.3,172.1z"/>
	<path class="st18" d="M120.8,173.3c0.2,0,0.3,0,0.4,0.2C121,173.4,120.9,173.4,120.8,173.3z"/>
	<path class="st20" d="M125.2,175c0.2,0,0.3,0,0.4,0.2C125.5,175.2,125.3,175.2,125.2,175z"/>
	<path class="st20" d="M125.8,175.2c0.2,0,0.3,0,0.4,0.2C126,175.4,125.9,175.3,125.8,175.2z"/>
	<path class="st20" d="M126.4,175.4c0.1,0,0.3,0,0.4,0.1C126.6,175.5,126.5,175.5,126.4,175.4z"/>
	<path class="st20" d="M127.1,175.6c0.2,0,0.3,0,0.4,0.1C127.4,175.7,127.2,175.7,127.1,175.6z"/>
	<path class="st20" d="M127.9,175.8c0.2,0,0.3,0,0.4,0.1C128.2,175.9,128,175.9,127.9,175.8z"/>
	<path class="st20" d="M154.4,159c0-0.1-0.1-0.2-0.1-0.3C154.3,158.8,154.4,158.8,154.4,159z"/>
	<path class="st18" d="M118.8,172.3c0.1,0,0.2,0.1,0.2,0.1C118.9,172.4,118.9,172.4,118.8,172.3z"/>
	<path class="st18" d="M119.2,172.5c0.1,0,0.2,0.1,0.2,0.1C119.3,172.6,119.3,172.6,119.2,172.5z"/>
	<path class="st18" d="M119.6,172.7c0.1,0,0.2,0.1,0.2,0.1C119.7,172.8,119.6,172.8,119.6,172.7z"/>
	<path class="st18" d="M120,172.9c0.1,0,0.2,0.1,0.2,0.1C120.1,173,120,173,120,172.9z"/>
	<path class="st20" d="M154.2,158.6c0-0.1-0.1-0.2-0.1-0.3C154.1,158.4,154.2,158.5,154.2,158.6z"/>
	<path class="st90" d="M240.7,180.2c-0.3,1.3-1.1,2.4-1.5,3.7c-0.1,0.3-0.4,0.6-0.4,1c-0.7,0.9-1,1.9-1.5,2.9
		c-0.2,0.3-0.3,0.7-0.6,1c-0.9-1-1.5-2.3-2.1-3.5c0-0.4,0.3-0.7,0.4-1.1c1-2.1,2-4.3,2.9-6.5c0.1-0.3,0.2-0.7,0.5-0.9
		c0.2-0.1,0.3,0,0.4,0.1C239.5,177.9,240.4,178.9,240.7,180.2z"/>
	<path class="st91" d="M234.5,185.2c0.5,0.2,0.7,0.8,0.9,1.2c0.4,0.7,1,1.4,1.2,2.3c-0.3,0.6-0.6,1.3-1,1.9
		c-0.8,1.4-1.6,2.7-2.4,4.1c-0.2,0.4-0.4,0.8-0.7,1.1c-0.2,0.1-0.3,0.5-0.6,0.6c-1-1-1.8-2-1.9-3.5c1.1-1.9,2.1-3.7,3.2-5.6
		c0.4-0.7,0.7-1.4,1.1-2.1C234.4,185.2,234.4,185.2,234.5,185.2z"/>
	<path class="st86" d="M240.7,180.2c-0.5-0.9-1.1-1.8-1.6-2.7c-0.2-0.3-0.3-0.6-0.7-0.8c0.2-0.6,0.4-1.3,0.6-1.9
		c0.7-1.3,1.1-2.6,1.5-4c0-0.2,0.1-0.3,0.2-0.4c0.9,0.5,1.1,1.5,1.6,2.2c0.3,0.5,0.6,1,0.9,1.4c-0.1,0.4-0.3,0.9-0.4,1.3
		c-0.5,0.7-0.6,1.5-0.9,2.3c-0.3,0.7-0.7,1.4-0.8,2.1C240.9,179.9,240.8,180.1,240.7,180.2z"/>
	<path class="st92" d="M230.1,192.9c0.4,1,1,1.9,1.6,2.8c0.1,0.2,0.3,0.4,0.4,0.7c-0.8,1.6-1.9,3-2.9,4.4c-1.1,1.2-1.8,2.7-2.9,3.9
		c-0.3,0.4-0.6,0.8-1,1.2c-0.9-1-1.7-2.1-1.9-3.5l0,0c0.1-0.1,0.1-0.1,0.2-0.2l0,0c0.1-0.1,0.1-0.1,0.2-0.2c0-0.1,0-0.1,0-0.2
		c0.7-0.4,1-1.2,1.5-1.8c1.3-1.8,2.6-3.6,3.8-5.6c0.1-0.1,0.1-0.1,0.2-0.2l0,0c0.1-0.1,0.1-0.1,0.2-0.2c0-0.1,0-0.1,0-0.2
		c0.1-0.1,0.1-0.1,0.2-0.2c0-0.1,0-0.1,0-0.2C229.8,193.4,229.8,193.1,230.1,192.9z"/>
	<path class="st93" d="M210.4,216.1c0-0.4,0.1-0.7,0.4-0.9c0.3-0.3,0.3-0.6,0.1-0.9c-0.3-0.6-0.7-1.2-1-1.7
		c-0.1-0.2-0.3-0.3-0.5-0.3c1.2-1.3,2.4-2.6,3.8-3.7c0.3-0.3,0.7-0.6,0.9-0.9c0.5-0.8,1.3-1.3,1.8-2.1c0.5,0.1,0.6,0.6,0.9,1
		c0.4,0.7,0.8,1.4,1.3,2.1c0,0.8-0.7,1.1-1.1,1.6c-0.3,0.3-0.6,0.6-0.9,0.9c-1.7,1.5-3.1,3.3-4.9,4.7
		C211,215.9,210.8,216.2,210.4,216.1z"/>
	<path class="st63" d="M229.5,193.7c-0.1,0.1-0.1,0.1-0.2,0.2C229.4,193.8,229.4,193.8,229.5,193.7z"/>
	<path class="st63" d="M229.3,194.1c-0.1,0.1-0.1,0.1-0.2,0.2C229.2,194.2,229.2,194.2,229.3,194.1z"/>
	<path class="st63" d="M229.1,194.3c-0.1,0.1-0.1,0.1-0.2,0.2C229,194.4,229,194.4,229.1,194.3z"/>
	<path class="st94" d="M216,210.9c0.7-0.8,1.4-1.5,2.1-2.3c0.8-0.9,1.7-1.8,2.5-2.8c0.9-1.1,1.8-2.3,2.7-3.4c0.6,1,1.2,2,1.8,3
		c0.1,0.1,0.1,0.3,0.2,0.4c-0.4,0.5-0.9,0.9-1.2,1.5c-0.1,0.1-0.1,0.1-0.2,0.2c0,0,0,0,0,0c-0.8,0.5-1.3,1.3-1.9,2
		c-1,1.2-2,2.4-3.1,3.5c-0.1,0.1-0.1,0.2-0.2,0.3c-0.6,0.3-0.9,1-1.5,1.4c-0.2-0.1-0.2-0.3-0.2-0.5c0.2-0.8-0.2-1.5-0.6-2.1
		C216.1,211.7,215.8,211.4,216,210.9z"/>
	<path class="st94" d="M223.7,202c-0.1,0.1-0.1,0.1-0.2,0.2C223.6,202.1,223.6,202.1,223.7,202z"/>
	<path class="st94" d="M223.5,202.2c-0.1,0.1-0.1,0.1-0.2,0.2C223.4,202.3,223.4,202.3,223.5,202.2z"/>
	<path class="st95" d="M216,210.9c0.3,0.6,0.6,1.1,0.9,1.7c0.3,0.5,0.5,1.1,0.2,1.7c-0.1,0.1,0,0.3,0,0.5l0,0
		c-0.1,0.1-0.1,0.1-0.2,0.2c-0.9,1-1.8,2-2.8,2.8c-0.2,0.1-0.3,0.3-0.4,0.5c-0.1,0.1-0.1,0.1-0.2,0.2l0,0c-0.1,0.1-0.1,0.1-0.2,0.2
		l0,0c-0.1,0.1-0.1,0.1-0.2,0.2c-0.1,0-0.1,0-0.2,0c-0.1,0.1-0.1,0.1-0.2,0.2l0,0c-0.1,0.1-0.1,0.1-0.2,0.2l0,0
		c-0.1,0.1-0.1,0.1-0.2,0.2l0,0c-0.1,0.1-0.1,0.1-0.2,0.2c-0.1,0.1-0.1,0.1-0.2,0.2c-0.1,0.1-0.1,0.1-0.2,0.2
		c-0.1,0.1-0.1,0.1-0.2,0.2c-0.2,0.1-0.4,0.3-0.6,0.4c-1.2,1-2.4,2-3.7,3c-0.2,0.1-0.3,0.3-0.6,0.3c0-0.9-0.7-1.4-1-2.1
		c-0.2-0.4-0.4-0.8-0.6-1.2c0,0,0,0,0,0c0.1-0.1,0.1-0.1,0.2-0.2l0,0c0.1-0.1,0.1-0.1,0.2-0.2c0.1,0,0.1,0,0.2,0
		c0.1-0.1,0.1-0.1,0.2-0.2c1.5-1.3,3.1-2.5,4.4-3.9c1.6-1.2,3-2.7,4.5-4.2C215.2,211.6,215.5,211.2,216,210.9z"/>
	<path class="st68" d="M205.9,220c-0.1,0.1-0.1,0.1-0.2,0.2C205.8,220.1,205.9,220,205.9,220z"/>
	<path class="st68" d="M205.5,220.2c-0.1,0.1-0.1,0.1-0.2,0.2C205.4,220.3,205.5,220.2,205.5,220.2z"/>
	<path class="st68" d="M205.4,220.4c-0.1,0.1-0.1,0.1-0.2,0.2C205.2,220.5,205.3,220.4,205.4,220.4z"/>
	<path class="st94" d="M216.9,214.9c0.1-0.1,0.1-0.1,0.2-0.2C217.1,214.8,217,214.9,216.9,214.9z"/>
	<path class="st67" d="M213.5,218.4c0.1-0.1,0.1-0.1,0.2-0.2C213.6,218.3,213.5,218.4,213.5,218.4z"/>
	<path class="st67" d="M213.3,218.6c0.1-0.1,0.1-0.1,0.2-0.2C213.4,218.5,213.3,218.6,213.3,218.6z"/>
	<path class="st67" d="M213.1,218.8c0.1-0.1,0.1-0.1,0.2-0.2C213.2,218.7,213.1,218.7,213.1,218.8z"/>
	<path class="st67" d="M212.7,219c0.1-0.1,0.1-0.1,0.2-0.2C212.8,218.9,212.8,218.9,212.7,219z"/>
	<path class="st67" d="M212.5,219.2c0.1-0.1,0.1-0.1,0.2-0.2C212.6,219.1,212.6,219.1,212.5,219.2z"/>
	<path class="st67" d="M212.3,219.4c0.1-0.1,0.1-0.1,0.2-0.2C212.4,219.3,212.4,219.3,212.3,219.4z"/>
	<path class="st67" d="M212.1,219.6c0.1-0.1,0.1-0.1,0.2-0.2C212.2,219.5,212.2,219.5,212.1,219.6z"/>
	<path class="st67" d="M211.9,219.8c0.1-0.1,0.1-0.1,0.2-0.2C212,219.6,212,219.7,211.9,219.8z"/>
	<path class="st67" d="M211.7,220c0.1-0.1,0.1-0.1,0.2-0.2C211.9,219.8,211.8,219.9,211.7,220z"/>
	<path class="st67" d="M211.5,220.2c0.1-0.1,0.1-0.1,0.2-0.2C211.7,220,211.6,220.1,211.5,220.2z"/>
	<path class="st76" d="M223.9,207.6c0.1-0.1,0.1-0.1,0.2-0.2C224,207.5,224,207.5,223.9,207.6z"/>
	<path class="st87" d="M49.2,73.6c0.1-0.1,0.1-0.1,0.2-0.2C49.3,73.5,49.2,73.6,49.2,73.6z"/>
	<path class="st87" d="M49.4,73.4c0.1-0.1,0.1-0.1,0.2-0.2C49.5,73.3,49.4,73.4,49.4,73.4z"/>
	<path class="st87" d="M49.6,73.1c0.1-0.1,0.1-0.1,0.2-0.2C49.7,72.9,49.6,73,49.6,73.1z"/>
	<path class="st87" d="M49.8,72.9c0.1-0.1,0.1-0.1,0.2-0.2C49.9,72.7,49.8,72.8,49.8,72.9z"/>
</g>
</svg>
