<?xml version="1.0" encoding="utf-8"?>
<!-- Generator: Adobe Illustrator 24.0.1, SVG Export Plug-In . SVG Version: 6.00 Build 0)  -->
<svg version="1.1" id="Layer_1" xmlns="http://www.w3.org/2000/svg" xmlns:xlink="http://www.w3.org/1999/xlink" x="0px" y="0px"
	 viewBox="0 0 288 280.3" style="enable-background:new 0 0 288 280.3;" xml:space="preserve">
<style type="text/css">
	.st0{fill:#D62521;}
</style>
<path class="st0" d="M268.6,77.3c-3-11.3-11.8-20.1-23-23.1C225.3,48.7,144,48.7,144,48.7s-81.3,0-101.6,5.5
	c-11.2,3-20,11.9-23,23.1c-5.4,20.4-5.4,63-5.4,63s0,42.6,5.4,63c3,11.3,11.8,19.8,23,22.8c20.3,5.5,101.6,5.5,101.6,5.5
	s81.3,0,101.6-5.5c11.2-3,20-11.5,23-22.8c5.4-20.4,5.4-63,5.4-63S274,97.7,268.6,77.3z M117.4,179v-77.3l68,38.7L117.4,179
	L117.4,179z"/>
</svg>
